/* XPM */
static char *result[] = {
/* columns rows colors chars-per-pixel */
"64 64 8 1 ",
"  c #CC9E12",
". c #E0AD14",
"X c #D9AB2B",
"o c #F5BA25",
"O c #F0BB28",
"+ c #FFCE3C",
"@ c #F0C95D",
"# c None",
/* pixels */
"################################################################",
"#########################               ########################",
"#########################               ########################",
"###################      ...............      ##################",
"###################      ...............      ##################",
"#################  ...........................  ################",
"#################  ...........................  ################",
"#############    ........               ........    ############",
"#############    ........               ........    ############",
"#############    ........               ........    ############",
"##########   ........    @@@@@@@@@@@@@@@    ........   #########",
"##########   ........    @@@@@@@@@@@@@@@    ........   #########",
"########  .........  @@@@@@@@@@@@@@@@@@@@@@@  .........  #######",
"########  .........  @@@@@@@@@@@@@@@@@@@@@@@  .........  #######",
"########  .....    @@@@XX@@@@@@@@@@@@@@@XX@@@@    .....  #######",
"########  .....    @@@@XX@@@@@@@@@@@@@@@XX@@@@    .....  #######",
"######  .......  @@@@XXooXX@@@@XXX@@@@XXooXX@@@@  .......  #####",
"######  .......  @@@@XXooXX@@@@XXX@@@@XXooXX@@@@  .......  #####",
"####  .......  @@@@XXooooooXXXXoooXXXXooooooXX@@@@  .......  ###",
"####  .......  @@@@XXooooooXXXXoooXXXXooooooXX@@@@  .......  ###",
"####  ....   @@@@XXooXXXXoooooooooooooooXXXXooXX@@@@   ....  ###",
"####  ....   @@@@XXooXXXXoooooooooooooooXXXXooXX@@@@   ....  ###",
"####  ....   @@XXooooXX++XXooXXXXXXXooXX++XXooooXX@@   ....  ###",
"####  ....   @@XXooooXX++XXooXXXXXXXooXX++XXooooXX@@   ....  ###",
"####  ....   @@XXooooXX++XXooXXXXXXXooXX++XXooooXX@@   ....  ###",
"##  ....  @@@@@@@XXooooXX++XXOOOOOOOXX++XXooooXX@@@@@@@  ....  #",
"##  ....  @@@@@@@XXooooXX++XXOOOOOOOXX++XXooooXX@@@@@@@  ....  #",
"##  ....  @@@@@@@@@XXooooXXOOOOXXXOOOOXXooooXX@@@@@@@@@  ....  #",
"##  ....  @@@@@@@@@XXooooXXOOOOXXXOOOOXXooooXX@@@@@@@@@  ....  #",
"##  ....  @@@@@@@@@XXooXXOOOOXX+++XXOOOOXXooXX@@@@@@@@@  ....  #",
"##  ....  @@@@@@@@@XXooXXOOOOXX+++XXOOOOXXooXX@@@@@@@@@  ....  #",
"##  ....  @@@@@@@XXooooXXOOXX++XXX++XXOOXXooooXX@@@@@@@  ....  #",
"##  ....  @@@@@@@XXooooXXOOXX++XXX++XXOOXXooooXX@@@@@@@  ....  #",
"##  ....  @@@@@@@@@XXooXXOOOOXX+++XXOOOOXXooXX@@@@@@@@@  ....  #",
"##  ....  @@@@@@@@@XXooXXOOOOXX+++XXOOOOXXooXX@@@@@@@@@  ....  #",
"##  ....  @@@@@@@@@XXooooXXOOOOXXXOOOOXXooooXX@@@@@@@@@  ....  #",
"##  ....  @@@@@@@@@XXooooXXOOOOXXXOOOOXXooooXX@@@@@@@@@  ....  #",
"##  ....  @@@@@@@XXooooXX++XXOOOOOOOXX++XXooooXX@@@@@@@  ....  #",
"##  ....  @@@@@@@XXooooXX++XXOOOOOOOXX++XXooooXX@@@@@@@  ....  #",
"####  ....   @@XXooooXX++XXooXXXXXXXooXX++XXooooXX@@   ....  ###",
"####  ....   @@XXooooXX++XXooXXXXXXXooXX++XXooooXX@@   ....  ###",
"####  ....   @@XXooooXX++XXooXXXXXXXooXX++XXooooXX@@   ....  ###",
"####  ....   @@@@XXooXXXXoooooooooooooooXXXXooXX@@@@   ....  ###",
"####  ....   @@@@XXooXXXXoooooooooooooooXXXXooXX@@@@   ....  ###",
"####  .......  @@@@XXooooooXXXXoooXXXXooooooXX@@@@  .......  ###",
"####  .......  @@@@XXooooooXXXXoooXXXXooooooXX@@@@  .......  ###",
"######  .......  @@@@XXooXX@@@@XXX@@@@XXooXX@@@@  .......  #####",
"######  .......  @@@@XXooXX@@@@XXX@@@@XXooXX@@@@  .......  #####",
"########  .....    @@@@XX@@@@@@@@@@@@@@@XX@@@@    .....  #######",
"########  .....    @@@@XX@@@@@@@@@@@@@@@XX@@@@    .....  #######",
"########  .........  @@@@@@@@@@@@@@@@@@@@@@@  .........  #######",
"########  .........  @@@@@@@@@@@@@@@@@@@@@@@  .........  #######",
"##########   ........    @@@@@@@@@@@@@@@    ........   #########",
"##########   ........    @@@@@@@@@@@@@@@    ........   #########",
"#############    ........               ........    ############",
"#############    ........               ........    ############",
"#############    ........               ........    ############",
"#################  ...........................  ################",
"#################  ...........................  ################",
"###################      ...............      ##################",
"###################      ...............      ##################",
"#########################               ########################",
"#########################               ########################",
"################################################################"
};
