/* XPM */
static char *result[] = {
/* columns rows colors chars-per-pixel */
"64 64 172 2 ",
"   c #000001",
".  c #030003",
"X  c #24161E",
"o  c #211C1B",
"O  c #201F1A",
"+  c #23181D",
"@  c #2C0723",
"#  c #2E0325",
"$  c #2D0424",
"%  c #2D0524",
"&  c #2D0425",
"*  c #2E0425",
"=  c #2C0624",
"-  c #2C0724",
";  c #2B0823",
":  c #2B0A22",
">  c #2A0B22",
",  c #2C0823",
"<  c #290D21",
"1  c #261120",
"2  c #3F0D36",
"3  c #3F0E36",
"4  c #3F0F36",
"5  c #3D1235",
"6  c #3D1335",
"7  c #3E1036",
"8  c #3E1136",
"9  c #3B1635",
"0  c #3B1735",
"q  c #3C1435",
"w  c #3D1435",
"e  c #3C1535",
"r  c #3C1635",
"t  c #3A1934",
"y  c #3B1835",
"u  c #3A1935",
"i  c #391B34",
"p  c #3A1A34",
"a  c #3A1A35",
"s  c #391C34",
"d  c #381D34",
"f  c #391D34",
"g  c #3A1C34",
"h  c #381E34",
"j  c #381F34",
"k  c #362333",
"l  c #352433",
"z  c #352533",
"x  c #352633",
"c  c #342733",
"v  c #372034",
"b  c #372134",
"n  c #362234",
"m  c #372234",
"M  c #332A32",
"N  c #332B32",
"B  c #332A33",
"V  c #342833",
"C  c #322D32",
"Z  c #7C3B1E",
"A  c #430537",
"S  c #420637",
"D  c #430637",
"F  c #420737",
"G  c #410936",
"H  c #410937",
"J  c #420837",
"K  c #410A36",
"L  c #400B36",
"P  c #410B36",
"I  c #400C36",
"U  c #400D36",
"Y  c #4A2920",
"T  c #734120",
"R  c #714628",
"E  c #70492D",
"W  c #5F1B4D",
"Q  c #6B1158",
"!  c #6E185A",
"~  c #72135F",
"^  c #73195F",
"/  c #731B5E",
"(  c #731A5F",
")  c #731B5F",
"_  c #74195F",
"`  c #711F5D",
"'  c #721E5D",
"]  c #721C5E",
"[  c #721D5E",
"{  c #6C2D57",
"}  c #6C2F57",
"|  c #6F255A",
" . c #6F245B",
".. c #6F255B",
"X. c #6E275A",
"o. c #6F275A",
"O. c #6F225C",
"+. c #6D2959",
"@. c #6E2859",
"#. c #6E2959",
"$. c #6D2B58",
"%. c #6C2C58",
"&. c #6D2C58",
"*. c #70235B",
"=. c #70245B",
"-. c #71205C",
";. c #71215C",
":. c #71205D",
">. c #70225C",
",. c #683753",
"<. c #6A3455",
"1. c #683953",
"2. c #761262",
"3. c #761362",
"4. c #751461",
"5. c #751561",
"6. c #751660",
"7. c #741760",
"8. c #741860",
"9. c #315273",
"0. c #654050",
"q. c #6B6957",
"w. c #6C6A56",
"e. c #6D6B56",
"r. c #6C6A57",
"t. c #6D6B57",
"y. c #6F6D55",
"u. c #6D6C57",
"i. c #6E6C56",
"p. c #6F6D56",
"a. c #65635B",
"s. c #676559",
"d. c #66645A",
"f. c #67655A",
"g. c #66645B",
"h. c #686659",
"j. c #696759",
"k. c #6A6858",
"l. c #6A6958",
"z. c #6B6958",
"x. c #BF1112",
"c. c #BE1113",
"v. c #BB1315",
"b. c #BA1317",
"n. c #BC1215",
"m. c #B71419",
"M. c #B6151A",
"N. c #B2171E",
"B. c #B4151C",
"V. c #B5161C",
"C. c #B91418",
"Z. c #B81419",
"A. c #AD1923",
"S. c #AA1A26",
"D. c #AA1B27",
"F. c #AD1924",
"G. c #A81C29",
"H. c #C01111",
"J. c #9A7745",
"K. c #9B7845",
"L. c #927448",
"P. c #A17A42",
"I. c #A27A42",
"U. c #A37B42",
"Y. c #A47B41",
"T. c yellow",
"R. c #DEAC52",
"E. c #00BAFF",
"W. c #D5B48B",
"Q. c #FFE6BD",
"!. c white",
"~. c None",
/* pixels */
"~.~.~.~.~.~.~.~.~.~.~.~.~.~.~.~.~.~.~.~.~.~.~.      H D S J F A D D D A F       ~.~.~.~.~.~.~.~.~.~.~.~.~.~.~.~.~.~.~.~.~.~.~.~.",
"~.~.~.~.~.~.~.~.~.~.~.~.~.~.~.~.~.~.~.~.~.~.~.      2 F A A S F J H D F K       ~.~.~.~.~.~.~.~.~.~.~.~.~.~.~.~.~.~.~.~.~.~.~.~.",
"~.~.~.~.~.~.~.~.~.~.~.~.~.~.~.~.~.~.~.~.~.~.~.    . q D J F J p 3 2 7 I r       ~.~.~.~.~.~.~.~.~.~.~.~.~.~.~.~.~.~.~.~.~.~.~.~.",
"~.~.~.~.~.~.~.~.~.~.~.~.~.~.~.~.~.~.~.~.      5 4 y ! 4.3.^ ^ -.=.#.| 4.( 6 F n       ~.~.~.~.~.~.~.~.~.~.~.~.~.~.~.~.~.~.~.~.~.",
"~.~.~.~.~.~.~.~.~.~.~.~.~.~.~.~.~.~.~.~.      s K 2 :.X.+. . .%.1.,.3.3.8.3 3 K       ~.~.~.~.~.~.~.~.~.~.~.~.~.~.~.~.~.~.~.~.~.",
"~.~.~.~.~.~.~.~.~.~.~.~.~.~.~.~.~.~.~.~.      F A 3 %.4.) 8.7.8.8.] 6.3.5.l D D       ~.~.~.~.~.~.~.~.~.~.~.~.~.~.~.~.~.~.~.~.~.",
"~.~.~.~.~.~.~.~.~.~.~.~.~.~.~.~.~.~.    a D J L D D a j l a j a 9 t h d k a z K L 4 V       ~.~.~.~.~.~.~.~.~.~.~.~.~.~.~.~.~.~.",
"~.~.~.~.~.~.~.~.~.~.~.~.~.~.~.~.~.~.    x H L J L U L K J A A A D J b b e 0 3 3 K J H       ~.~.~.~.~.~.~.~.~.~.~.~.~.~.~.~.~.~.",
"~.~.~.~.~.~.~.~.~.~.~.~.~.~.~.      u g ~ 4.6.^ 7.^ / / 8.8.8.8.8.8.] / ) ^ 8.) ` | 0.0 P N     ~.~.~.~.~.~.~.~.~.~.~.~.~.~.~.~.",
"~.~.~.~.~.~.~.~.~.~.~.~.~.~.~.      L 4 Q 5...7.@.` ^ / ] ) ( { ..;.;.;./ / / :.5.7.] D r P     ~.~.~.~.~.~.~.~.~.~.~.~.~.~.~.~.",
"~.~.~.~.~.~.~.~.~.~.~.~.~.~.~.      e i 6.` ) 5.5.5.5.5.5.4.5.4.5.5.4.4.4.4.4.4.] ` ] x D B     ~.~.~.~.~.~.~.~.~.~.~.~.~.~.~.~.",
"~.~.~.~.~.~.~.~.~.~.~.~.~.~.~.      *.[ Y.Y.Y.g.a.f.j.j.q.P.Y.Y.Y.Y.h.h.h.K.Y.Y.Y.Y.Y.^ 6.7.    ~.~.~.~.~.~.~.~.~.~.~.~.~.~.~.~.",
"~.~.~.~.~.~.~.~.~.~.~.~.~.~.~.      ] 7.Y.Y.Y.d.d.g.g.f.g.J.Y.Y.Y.Y.g.f.d.Y.Y.Y.Y.Y.Y.4.3.4.    ~.~.~.~.~.~.~.~.~.~.~.~.~.~.~.~.",
"~.~.~.~.~.~.~.~.~.~.~.~.~.~.~.      >.o.Y.Y.Y.d.a.f.a.g.a.Y.Y.Y.Y.Y.d.g.d.Y.Y.Y.Y.Y.Y.5.3.5.    ~.~.~.~.~.~.~.~.~.~.~.~.~.~.~.~.",
"~.~.~.~.~.~.~.~.~.~.~.~.      y A j Y.Y.Y.Y.Y.d.g.g.Y.Y.Y.g.h.g.Y.Y.h.g.a.g.a.k.Y.Y.Y.Y.Y.Y.q F       ~.~.~.~.~.~.~.~.~.~.~.~.~.",
"~.~.~.~.~.~.~.~.~.~.~.~.      F A J Y.Y.Y.Y.Y.f.g.d.Y.Y.Y.d.d.i.Y.Y.f.g.a.g.g.a.Y.Y.Y.Y.Y.Y.S K       ~.~.~.~.~.~.~.~.~.~.~.~.~.",
"~.~.~.~.~.~.~.~.~.~.~.~.      4 U I Y.Y.Y.Y.Y.r.g.f.Y.Y.Y.f.j.g.Y.I.j.a.a.a.g.f.Y.Y.Y.Y.Y.Y.v s       ~.~.~.~.~.~.~.~.~.~.~.~.~.",
"~.~.~.~.~.~.~.Y.Y.W.W.W.T T T T T T R.R.j.f.a.R.R.R.h.s.h.Y.Y.Y.z.r.R.R.R.Y.Y.Y.q.h.f.L.Y.Y.T T T T T W.W.W.Y.Y.Y.~.~.~.~.~.~.~.",
"~.~.~.~.~.~.~.Y.Y.W.W.W.T T T T T T R.R.f.u.k.R.R.R.h.f.f.Y.Y.Y.a.k.R.R.R.Y.Y.Y.a.g.h.U.Y.Y.T T T T T W.W.W.Y.Y.Y.~.~.~.~.~.~.~.",
"~.~.~.~.~.~.~.T T Q.Q.Q.Q.Q.Q.Y.Y.Y.t.d.Y.Y.Y.d.g.j.Y.Y.Y.Y.Y.Y.a.d.Y.Y.Y.W.W.W.Y.Y.Y.f.h.h.Y.Y.Q.Q.Q.Q.Q.Q.T T T ~.~.~.~.~.~.~.",
"~.~.~.~.~.~.~.T T Q.Q.Q.Q.Q.Q.Y.Y.Y.j.k.Y.Y.Y.d.d.l.Y.Y.Y.Y.Y.Y.d.a.Y.Y.Y.W.W.W.Y.Y.Y.k.a.d.Y.Y.Q.Q.Q.Q.Q.Q.T T T ~.~.~.~.~.~.~.",
"~.~.~.~.~.~.~.T T Q.Q.Q.Q.Q.Q.Y.Y.Y.p.d.Y.Y.Y.l.g.d.Y.Y.Y.Y.Y.Y.d.w.Y.Y.Y.W.W.W.Y.Y.Y.f.g.y.Y.Y.Q.Q.Q.Q.Q.Q.T T T ~.~.~.~.~.~.~.",
"~.~.~.~.~.~.~.~.~.T T T W.W.W.T T T Y.Y.R.R.R.f.g.g.a.f.k.R.R.R.R T W.W.W.Q.Q.Q.Y.Y.Y.R.R.R.Y.Y.W.W.W.T T T ~.~.~.~.~.~.~.~.~.~.",
"~.~.~.~.~.~.~.~.~.T T T W.W.W.T T T Y.Y.R.R.R.f.a.g.g.d.r.R.R.R.T T W.W.W.Q.Q.Q.Y.Y.Y.R.R.R.Y.Y.W.W.W.T T T ~.~.~.~.~.~.~.~.~.~.",
"~.~.~.~.~.~.~.~.~.T T T W.W.W.T T T Y.Y.R.R.R.g.g.e.h.f.r.R.R.R.T T W.W.W.Q.Q.Q.Y.Y.Y.R.R.R.Y.Y.W.W.W.T T T ~.~.~.~.~.~.~.~.~.~.",
"~.~.~.~.~.~.~.~.~.~.~.~.E.E.E.f.d.f.E T R.R.R.R.R.R.Y.Y.Y.T T T W.W.Q.Q.Q.Q.Q.Q.W.W.W.T T T T.T.E.E.E.~.~.~.~.~.~.~.~.~.~.~.~.~.",
"~.~.~.~.~.~.~.~.~.~.~.~.E.E.E.d.g.d.T T R.R.R.R.R.R.Y.Y.Y.T T T W.W.Q.Q.Q.Q.Q.Q.W.W.W.T T T T.T.E.E.E.~.~.~.~.~.~.~.~.~.~.~.~.~.",
"~.~.~.~.~.~.~.~.~.~.~.~.E.E.E.f.g.h.T T R.R.R.R.R.R.Y.Y.Y.T T T W.W.Q.Q.Q.Q.Q.Q.W.W.W.T T T T.T.E.E.E.~.~.~.~.~.~.~.~.~.~.~.~.~.",
"~.~.~.~.~.~.~.~.~.~.~.~.      j.g.f.Y.Y.      Y.Y.Y.T T T W.W.W.Q.Q.W.W.W.T T T       Y.Y.Y.T.T.      ~.~.~.~.~.~.~.~.~.~.~.~.~.",
"~.~.~.~.~.~.~.~.~.~.~.~.      g.f.i.Y.Y.      Y.Y.Y.T T T W.W.W.Q.Q.W.W.W.T T T       Y.Y.Y.T.T.      ~.~.~.~.~.~.~.~.~.~.~.~.~.",
"~.~.~.~.~.~.~.~.~.~.~.~.      f.g.r.Y.Y.      Y.Y.Y.T T T W.W.W.Q.Q.W.W.W.T T T       Y.Y.Y.T.T.      ~.~.~.~.~.~.~.~.~.~.~.~.~.",
"~.~.~.~.~.~.~.~.~.~.~.~.      R.R.R.T T !.!.!.m.H.H.T T T Q.Q.Q.Q.Q.T T Z B.H.S.!.!.!.T T T R.R.      ~.~.~.~.~.~.~.~.~.~.~.~.~.",
"~.~.~.~.~.~.~.~.~.~.~.~.      R.R.R.T T !.!.!.V.b.v.T T T Q.Q.Q.Q.Q.T T T c.H.C.!.!.!.T T T R.R.      ~.~.~.~.~.~.~.~.~.~.~.~.~.",
"~.~.~.~.~.~.~.~.~.~.~.~.~.~.~.          Q.Q.Q.F.M.n.!.!.!.Q.Q.Q.Q.Q.!.!.!.N.H.G.Q.Q.Q.          ~.~.~.~.~.~.~.~.~.~.~.~.~.~.~.~.",
"~.~.~.~.~.~.~.~.~.~.~.~.~.~.~.          Q.Q.Q.D.x.x.!.!.!.Q.Q.Q.Q.Q.!.!.!.Z.x.n.Q.Q.Q.          ~.~.~.~.~.~.~.~.~.~.~.~.~.~.~.~.",
"~.~.~.~.~.~.~.~.~.~.~.~.~.~.~.          Q.Q.Q.V.b.A.!.!.!.Q.Q.Q.Q.Q.!.!.!.n.C.v.Q.Q.Q.          ~.~.~.~.~.~.~.~.~.~.~.~.~.~.~.~.",
"~.~.~.~.~.~.~.~.~.~.~.~.~.~.~.~.~.~.    Y.Y.Y.Q.Q.Q.Q.Q.Q.Q.Q.Q.Q.Q.Q.Q.Q.Q.Q.Q.Y.Y.Y.      ~.~.~.~.~.~.~.~.~.~.~.~.~.~.~.~.~.~.",
"~.~.~.~.~.~.~.~.~.~.~.~.~.~.~.~.~.~.    Y.Y.Y.Q.Q.Q.Q.Q.Q.Q.Q.Q.Q.Q.Q.Q.Q.Q.Q.Q.Y.Y.Y.      ~.~.~.~.~.~.~.~.~.~.~.~.~.~.~.~.~.~.",
"~.~.~.~.~.~.~.~.~.~.~.~.~.~.~.~.~.~.    Y.Y.Y.Q.Q.Q.Q.Q.Q.Q.Q.Q.Q.Q.Q.Q.Q.Q.Q.Q.Y.Y.Y.      ~.~.~.~.~.~.~.~.~.~.~.~.~.~.~.~.~.~.",
"~.~.~.~.~.~.~.~.~.~.~.~.~.~.~.      K 6 T T T T T T W.W.W.W.W.W.W.W.W.W.W.T T T T T T 5 w J     ~.~.~.~.~.~.~.~.~.~.~.~.~.~.~.~.",
"~.~.~.~.~.~.~.~.~.~.~.~.~.~.~.      K S T T T T T T W.W.W.W.W.W.W.W.W.W.W.T T T T T T D D H     ~.~.~.~.~.~.~.~.~.~.~.~.~.~.~.~.",
"~.~.~.~.~.~.~.~.~.~.~.~.~.~.~.      e J T T T T T T W.W.W.W.W.W.W.W.W.W.W.T T T T T T y F n     ~.~.~.~.~.~.~.~.~.~.~.~.~.~.~.~.",
"~.~.~.~.~.~.~.~.~.~.~.~.      9.9.9.!.!.; % o m K A A J 7 8 6 F J J H H 4 F H J % @ + !.!.!.Y Y       ~.~.~.~.~.~.~.~.~.~.~.~.~.",
"~.~.~.~.~.~.~.~.~.~.~.~.      9.9.9.!.!.# $ # 5 h H J D S A A A A P 4 A I K J s % % # !.!.!.Y Y       ~.~.~.~.~.~.~.~.~.~.~.~.~.",
"~.~.~.~.~.~.~.~.~.~.~.~.      9.9.9.!.!., # % I A A A A A D D F F A A A A S D I = % ; !.!.!.Y Y       ~.~.~.~.~.~.~.~.~.~.~.~.~.",
"~.~.~.~.~.~.~.~.~.      T T T T T T     T T T 3 D A A A A A 2 S A D A F A D G D T T T       T T T T T       ~.~.~.~.~.~.~.~.~.~.",
"~.~.~.~.~.~.~.~.~.      T T T T T T     T T T e D P p J I 3 2 I K L f K S G S h T T T       T T T T T       ~.~.~.~.~.~.~.~.~.~.",
"~.~.~.~.~.~.~.~.~.      W.W.W.Q.Q.Q.% ; ;.3.` T T T T T T T.T.T.T.T.T T T T T T 8.3.$.: % > Q.Q.W.W.W.      ~.~.~.~.~.~.~.~.~.~.",
"~.~.~.~.~.~.~.~.~.      W.W.W.Q.Q.Q.# * _ ;.3.T T T T T T T.T.T.T.T.T T T T T T ) 8.4.< % - Q.Q.W.W.W.      ~.~.~.~.~.~.~.~.~.~.",
"~.~.~.~.~.~.~.~.~.      W.W.W.Q.Q.Q.X # W 3.#.T T T T T T T.T.T.T.T.T T T T T T 8.4.} 1 O & Q.Q.W.W.W.      ~.~.~.~.~.~.~.~.~.~.",
"~.~.~.~.~.~.~.~.~.~.~.~.                F q M $.3.] 7 S S D F I 8 J r m C ..5.:.P D 2                 ~.~.~.~.~.~.~.~.~.~.~.~.~.",
"~.~.~.~.~.~.~.~.~.~.~.~.                J A J ( 2.3.K J S S S D A L L b H 3.5.3.D S 2                 ~.~.~.~.~.~.~.~.~.~.~.~.~.",
"~.~.~.~.~.~.~.~.~.~.~.~.                J D J <.' 3.4 h f u r L L P S D 7 5.3.` S H c                 ~.~.~.~.~.~.~.~.~.~.~.~.~.",
"~.~.~.~.~.~.~.~.~.~.~.~.~.~.~.~.~.~.          2 H V  .[ ) 7.7.8.' ] 8._ O.H L x             ~.~.~.~.~.~.~.~.~.~.~.~.~.~.~.~.~.~.",
"~.~.~.~.~.~.~.~.~.~.~.~.~.~.~.~.~.~.          A F J 5.( 3.3.7.&.6.3.3.3.4.A L F             ~.~.~.~.~.~.~.~.~.~.~.~.~.~.~.~.~.~.",
"~.~.~.~.~.~.~.~.~.~.~.~.~.~.~.~.~.~.          F D S 4.3.2.3.5.5.( ` ' 7.8.u A s             ~.~.~.~.~.~.~.~.~.~.~.~.~.~.~.~.~.~.",
"~.~.~.~.~.~.~.~.~.~.~.~.~.~.~.      T T Y Y Y                                   Y Y Y T T T     ~.~.~.~.~.~.~.~.~.~.~.~.~.~.~.~.",
"~.~.~.~.~.~.~.~.~.~.~.~.~.~.~.      T T Y Y Y                                   Y Y Y T T T     ~.~.~.~.~.~.~.~.~.~.~.~.~.~.~.~.",
"~.~.~.~.~.~.~.~.~.~.~.~.~.~.~.      T T T T T Y Y Y       ~.~.~.~.~.      Y Y Y T T T T T T     ~.~.~.~.~.~.~.~.~.~.~.~.~.~.~.~.",
"~.~.~.~.~.~.~.~.~.~.~.~.~.~.~.      T T T T T Y Y Y       ~.~.~.~.~.      Y Y Y T T T T T T     ~.~.~.~.~.~.~.~.~.~.~.~.~.~.~.~.",
"~.~.~.~.~.~.~.~.~.~.~.~.~.~.~.      T T T T T Y Y Y       ~.~.~.~.~.      Y Y Y T T T T T T     ~.~.~.~.~.~.~.~.~.~.~.~.~.~.~.~.",
"~.~.~.~.~.~.~.~.~.~.~.~.~.~.~.~.~.~.                ~.~.~.~.~.~.~.~.~.~.~.                  ~.~.~.~.~.~.~.~.~.~.~.~.~.~.~.~.~.~.",
"~.~.~.~.~.~.~.~.~.~.~.~.~.~.~.~.~.~.                ~.~.~.~.~.~.~.~.~.~.~.                  ~.~.~.~.~.~.~.~.~.~.~.~.~.~.~.~.~.~.",
"~.~.~.~.~.~.~.~.~.~.~.~.~.~.~.~.~.~.                ~.~.~.~.~.~.~.~.~.~.~.                  ~.~.~.~.~.~.~.~.~.~.~.~.~.~.~.~.~.~."
};
