/* XPM */
static char *result[] = {
/* columns rows colors chars-per-pixel */
"64 46 203 2 ",
"   c #150B2E",
".  c #150E36",
"X  c #151545",
"o  c #161C54",
"O  c #16215E",
"+  c #351B76",
"@  c #162262",
"#  c #19266C",
"$  c #172A75",
"%  c #1A2975",
"&  c #1B2C7C",
"*  c #27206D",
"=  c #29257A",
"-  c #32237F",
";  c #260090",
":  c #1D2E83",
">  c #1F318A",
",  c #222C83",
"<  c #2A2B89",
"1  c #332788",
"2  c #21328E",
"3  c #223494",
"4  c #2D3097",
"5  c #24379C",
"6  c #2A349C",
"7  c #243A9D",
"8  c #2B00B2",
"9  c #2D18BB",
"0  c #253AA1",
"q  c #273DA9",
"w  c #293AA8",
"e  c #2A37B2",
"r  c #293FB2",
"t  c #23449E",
"y  c #2744AE",
"u  c #2A42B4",
"i  c #2946B7",
"p  c #2B43BB",
"a  c #3600DC",
"s  c #351AD8",
"d  c #2F35C4",
"f  c #3039CD",
"g  c #3428D9",
"h  c #3636D7",
"j  c #353DE0",
"k  c #6F2CCC",
"l  c #0040DD",
"z  c #0257DF",
"x  c #2E47C4",
"c  c #2D4BC4",
"v  c #2F46C9",
"b  c #2F49CA",
"n  c #324BD4",
"m  c #3646DF",
"M  c #334DDC",
"N  c #2D5ADE",
"B  c #3452DD",
"V  c #0073DC",
"C  c #007BDE",
"Z  c #1C7ADE",
"A  c #3460DF",
"S  c #2A77DC",
"D  c #3172DE",
"F  c #0047E0",
"G  c #354BE1",
"H  c #3848E1",
"J  c #3452E1",
"K  c #3951E0",
"L  c #335BE1",
"P  c #0E7BE1",
"I  c #3367E3",
"U  c #297BE3",
"Y  c #347AE5",
"T  c #6855DA",
"R  c #526DD9",
"E  c #6E6ED9",
"W  c #4253E1",
"Q  c #8955D2",
"!  c #8F73D6",
"~  c #0084DE",
"^  c #008ADF",
"/  c #178ADE",
"(  c #278ADE",
")  c #3096D3",
"_  c #1EBFC2",
"`  c #29B8DA",
"'  c #0085E0",
"]  c #0089E3",
"[  c #1C89E1",
"{  c #0090E1",
"}  c #009AE7",
"|  c #2887E4",
" . c #228DE0",
".. c #3186E2",
"X. c #318BE4",
"o. c #3588EA",
"O. c #2897E5",
"+. c #3994E5",
"@. c #2D9BF1",
"#. c #04A2EA",
"$. c #08A4EA",
"%. c #16B6E4",
"&. c #00AEF0",
"*. c #00BAF5",
"=. c #2EAAE3",
"-. c #2EA8E8",
";. c #28BDE7",
":. c #36B3F0",
">. c #4793DE",
",. c #6A8EDE",
"<. c #4295E1",
"1. c #4799E2",
"2. c #589CE3",
"3. c #659EE4",
"4. c #57A5E9",
"5. c #47BBF4",
"6. c #67A7E6",
"7. c #62A3E9",
"8. c #75A3E3",
"9. c #79AAE6",
"0. c #7DACE6",
"q. c #23C0D4",
"w. c #04D7EA",
"e. c #18DFE9",
"r. c #00C4FF",
"t. c #11CCFD",
"y. c #00D2FE",
"u. c #00DAF8",
"i. c #2EC5EE",
"p. c #27CBEB",
"a. c #26D2E9",
"s. c #3DDAE9",
"d. c #36C2F9",
"f. c #26DBF3",
"g. c #27D7F8",
"h. c #29D5FF",
"j. c #37D8FD",
"k. c #00F0EB",
"l. c #1BF8EB",
"z. c #18EBF3",
"x. c #1CFCF0",
"c. c #28EBEA",
"v. c #2EF2EF",
"b. c #45CEF9",
"n. c #59D8FF",
"m. c #6DCDEB",
"M. c #61D6FE",
"N. c #7BD9FD",
"B. c #5DEBE0",
"V. c #918DDF",
"C. c #8A99DA",
"Z. c #BB98DB",
"A. c #8BA0D4",
"S. c #B7A4DD",
"D. c #9392E0",
"F. c #89ACE3",
"G. c #8DB1E4",
"H. c #94B5E7",
"J. c #B8ADE3",
"K. c #A6BAE7",
"L. c #C4A3DB",
"P. c #94CAF1",
"I. c #8CDCFA",
"U. c #97DCF9",
"Y. c #AAC3EA",
"T. c #B4C8E7",
"R. c #B1C6EA",
"E. c #BCCDEA",
"W. c #BDD0EE",
"Q. c #91E3FF",
"!. c #9DE1FC",
"~. c #A8E3FC",
"^. c #C0D1ED",
"/. c #D5DBED",
"(. c #C4D7F2",
"). c #CCDBF3",
"_. c #E1CFE7",
"`. c #E6D6E9",
"'. c #EDDDF1",
"]. c #DDE3EE",
"[. c #C8ECFD",
"{. c #DBEDF6",
"}. c #D9EAF8",
"|. c #DAF3FF",
" X c #EDE2EF",
".X c #E5E8EF",
"XX c #EEEEEE",
"oX c #F0EFEF",
"OX c #F3F0EE",
"+X c #F8F2EE",
"@X c #E4EAF3",
"#X c #EAE9F4",
"$X c #ECF1F4",
"%X c #E5F3FA",
"&X c #EDF3FA",
"*X c #F4F4F4",
"=X c #F9F7F5",
"-X c #F7F9F7",
";X c #FAF9F6",
":X c #F5F7F9",
">X c #F8F7F8",
",X c #F5F9FB",
"<X c #FCFCFC",
/* pixels */
"<X>XoX<X*X*X<XoX-X<XXX>X<XXX<X<XXX<X-X*X<X>X*X<X*X>X<XXX;X<XXX<X<XXX<X<XoX<X>XoX<X*X*X<XoX-X<XXX<X<XXX<X>XXX<X:X*X<X*X*X<X$X*X<X",
">X>X>X>X>X;X>X-X-X>X>X>X-X<X>X-X>X>X-X>X*X>X;X*X-X>X>X>X>X;X<X>X-X>X-X>X>X>X-X-X>X>X;X>X-X>X>X>X>X-X>X>X-X<X-X-X-X>X>X>X>X>X>X;X",
"*X;X<X$X<X>X$X<X>X*X<X>X>X<X*X*X<X>X>X<X$X>X<X*X<X>X+X,X%X@X,X$X=X<X$X>X<X*X>X<X$X<X-X*X<X;X*X<X*X>X<X>X*X<XoX>X<X*X>X>X$X<X>X*X",
"<X*X*X<X*X*X<XoX-X<XXX<X<XXX<X>XXX<X;X$X<X*X*X<X$X-X|.h.y.j.y.y.}.+X<X>XXX<X*X*X<X*X*X<X$X>X<XXX>X<XXX<X<XXX<X>XoX<X*X*X<XoX>X<X",
"*X-X<X*X>X>X*X<X-XOX<X-X>X<X>X>X<X>X-X<X*X-X>X*X<X;XI.y.M.y.Q.|.n.P..X;X<X*X-X>X*X-X>X*X<X>X>X<X-X>X<X*X-X<X*X>X<X*X<X>X*X<X>X*X",
"*X>X>X>X>X<X*X>X-X>X<X-X*X>X*X*X>X>X-X>X*X<X>X*X<X;X$X<X{.4.d.[.n.r.6.XX<X>X>X>X*X-X>X>X>X-X*X<X>X*X<X>X*X<X*X>X>X*X>X-X*X>X;X*X",
"<X>XXX<X*X*X<X*X:X<XoX>X<XoX<X<XXX<X;X$X<X>X*X<X*X>X<XE.8.~ / #.g.v.} 3..X<X>X*X<X*X>X<X*X>X<XXX>X<XoX<X<X$X<X>X$X<X*X*X<X*X>X<X",
"*X-X<XXX<X<XoX<X:X*X<X>X*X<X$X>X<X*X-X<XoX>X<XXX<X:XR.).H.^ O.S o.l.f.] <.Y.<X<XoX<X<XoX<X>XOX<X>XoX<X*X*X<X*X;X<XOX<X<XoX<X>XoX",
">X>X-X-X>X>X:X>X>X;X-X-X>X;X>X;X:X>X-X>X>X>X-X>X<X^.(.F.^ U S I a ;.x.i.C 4.#X;X;X>X>X>X>X>X-X>X>X-X-X>X>X>X;X>X>X>X>X>X>X>X*X-X",
"<X>X*X<X*X>X<X*X-X<XoX>X<X$X<X>XoX<X>X*X<X*X*X<X=XT.7.+.Z G G G J I f.z.+.C T.=X<X>X>X<X*X-X<X$X<X<XoX<X-X*X<X>X*X<X*X*X<X*X-X<X",
"XX>X<XXX<X<XXX<X>XXX<X>X*X<X*X*X<X*X>X<XXX<X<X+X&X>.~ S m J J J J g X.x.o.Z 1.&XoX<X>XXX<X>XOX<X*X*X<X*X*X<X$X;X<XXX<X<XXX<X>XoX",
"<X-X*X<X*X>X<X*X:X<X>X>X>X*X>X-X*X<X-X*X<X$X[.<X@X/ D H G J n b b e D x.p.[ [ @X<X*X>X<X*X>X<X*X>X-X*X>X-X>X>X:X>X<X>X>X<X*X-X<X",
"<X-X>X<X*X>X<X*X-X<X*X>X<X*X>X>X*X<X-X>X<X*X$X<XH.^ o.g.-.g p u r i 8 q.f.D ' G.,X$X-X<X*X-X<X*X>X>X*X>X>X*X<X-X*X<X*X>X<X>X>X<X",
"XX>X<XXX<X<XXX<X>XoX<X*X*X<X$X>X<XoX-X<XXX<X<X).+.$.v.l.X.d i 0 3 y ; _ -.g P F.~.|.<XXX<X;X$X<X>X$X<X*X>X<XoX-X<XXX<X<XXX<X-XXX",
"<X:X*X<X*X>X<X*X-X<X*X-X<XoX<X>XoX<X>X*X<X*X-XY.C j.l...s y 0 5 5 t ; ) ) j F F.[.N.-X<X*X>X<XXX>X<XOX<X>X*X<X:X*X<X>X*X<X*X>X<X",
">X-X-X-X-X-X>X-X>X>X-X>X>X-X>X;X*X>X>X-X-X<X].^ -.x.=.a t 2 5 2 3 < 1 1 r K z 9.<X!.&X;X>X>X-X>X>X-X>X-X>X>X>X-X-X-X-X>X>X-X-X>X",
"*X>X<XXX<X>XXX<X>X*X<X-X*X<X*X>X<X$X>X<XXX<X%XC h.x.o.e 3 r 3 & % > 3 + u G Z >.P.N.-X*X<X>X*X<X>X*X<X*X-X<X*X-X<X$X<X<XXX<X>XOX",
"<X>X*X<X*X*X<X*X-X<XXX>X<XXX<X>XOX<X>X*X<X-XT.C f.a.g t 6 5 & # O $ 5 < u G K / &.j..X<X*X>X<XXX>X<XXX<X>XoX<X-X*X<X*X*X<X*X-X<X",
"*X>X>X*X>X>X>X>X>X>X>X>X-X<X>X*X>X*X-X>X*X<XR.#.c.X.h p 0 2 % @ O % 3 2 q J J S :.4.Z.;X>X-X>X>X*X>X<X>X>X>X-X>X>X*X>X>X>X>X>X>X",
"*X-X<X*X<X-X*X<X-X*X<X>X*X<X*X>X<X>X-X<X$X<X@Xw.v.m b w 1 - * o @ @ & 0 p b G ( r.D. X*X<X>X*X<X*X>X<X*X>X<X*X>X<X*X>X<XoX<X;X$X",
"<X>X*X<X*X*X<X$X:X<XXX<X<XXX<X<XXX<X>X*X<X;X/.s.a.G x + 1 : @ o o @ & 3 u b G O.y.C.*X<XXX-X<XXX<X<XXX<X<XXX<X>XoX<X*X*X<XoX>X<X",
"*X-X<XoX<X-X*X<X-X*X<X>X*X<X>X*X<X*X>X>X*X>XZ.6.U h p 4 , & @ X . @ : 2 2 b G O.y.D.+X*X<X>X*X<X*X*X<X*X-X<X*X>X<X*X>X>X*X<X-X*X",
"*X-X>X>X>X>X*X;X>X-X<X-X>X-X-X>X>X-X>X-X;X`.A.w.G n p q > & o   . o : 5 , c m #.7.Z.>X:X>X>X*X<X-X-X>X-X-X<X*X>X>X-X>X-X>X;X-X>X",
"<X*X*X<X*X*X<X*X>X<XXX>X<XXX<X>X$X<X>X*X<XL.:.p.G n u > 2 & @ . X @ : 5 q B h #.6.`.>X<X*X;X<X$X>X<XoX<X<XXX<X:X*X<X*X*X<X$X>X<X",
"$X>X<X*X<X>XoX<X>X$X<X;X*X<X*X*X<X*X>X<X*XS.:.O.L n p 3 2 % @ o O O : 3 p J m t.7.'.<XoX<X>XXX<X*X*X<X*X-X<XoX>X<XXX>X<XoX<X>X$X",
">X;X>X;X>X-X>X-X-X>X>X>X-X>X>X-X;X>X>X>X<XL.k { A K x : 3 & @ @ @ @ $ , q M K t.7.`.<X>X-X>X-X>X>X-X>X;X>X-X>X>X-X>X>X>X-X-X;X>X",
"<X>X$X<X>X*X<X*X>X<X$X;X<XOX<X<X*X<X>XoX<XJ.0.1.N G b r 5 2 $ @ O @ & 7 u M K y.7._.-X<X*X>X<X*X>X<X$X<X>X*X<X>X*X<X>X>X<X*X>X<X",
"XX<X<XXX<X<XXX<X>XXX<X>X*X<X$X>X<X$X-X<X*XZ.|.(.l W M x 0 & $ o O $ = 4 r M G d.,. X<XXX<X>X*X<X*X*X<X*X>X<XXX>X<XXX<X<XXX<X<XXX",
"<X;X*X<X>X*X<X*X>X<X*X-X>X*X<X>X*X<X>X$X<XJ.5.0.z K B n 5 & & # % % , 3 i g @.s.Z.$X>X<X*X-X>X*X-X<X*X>X>X*X<X:X*X<X*X*X<X>X>X<X",
">X>X>X<X*X>X<X>X-X<X>X>X-X*X>X-X*X>X>X*X<X~.*.C ..H m B 3 = , : : - 1 5 p B c.k.8.$X>X>X*X-X<X*X>X>X*X<X-X*X<X-X*X>X>X>X<X>X-X>X",
"XX>X<XXX<X>XXX<X>X*X<X>X*X<X*X>X<XOX-X<X+XI.M.F.C o.Y h y = + , & < 5 y s =.v.} K.<X<XXX<X>X*X<X*X*X<X*X>X<XXX>X<XoX<X<XXX<X>XXX",
"<X>X>X<X*X*X<X*X-X<XoX>X<XXX<X>X*X<X:X*X<X{.~.}.V @.z.p.f i 6 : & 3 0 e v c.;.V (.;X*X<X*X>X<XXX-X<XoX<X>X*X<X-X*X<X*X>X<X*X-X<X",
"-X-X>X>X:X-X-X;X>X-X>X>X-X-X-X-X>X>X:X-X;X&X!.;X8.D j.e.g p y 3 > 5 i 9 ` c.C 9.>X-X-X;X-X>X>X>X>X>X>X-X-X:X>X>X>X*X-X-X-X>X>X;X",
"oX-X<XOX<X<XXX<X-X$X<X>X*X<X*X*X<X&X-X<XOX&X~.*X8.R V.l.-.9 7 p 0 > 0 f i.=.~ F.oX<X>X$X<X-X*X<X*X*X<XoX>X<X*X>X<XXX>X<X$X<X>XXX",
"<X>X*X<X*X*X<X$X>X<XXX>X<XXX<X<XXX<X-XoX<X$XU.<X0.C Q B.%.a c p 3 : u v N | ~ ].<X*X>X<X*X-X<XXX>X<XXX<X-XXX<X-XoX<X*X*X<X*X>X<X",
"*X-X>X*X>X>X*X<X-X>X<X*X>X<X*X*X>X>X-X<X*X-X|.*X9.' T C.e.H n i > x M G ..{ Y.>X>X>X>X*X>X>X>X>X-X>X<X-X>X<X>X-X<X*X>X<X*X>X-X>X",
"*X-X<X*X>X<X*X<X>X>X<X>X*X<X>X>X<X>X-X<X*X>X<X>X@X3.~ Q m.%.g c r J N S X.C ).;X*X>X>X*X<X>X*X<X>X*X<X*X-X<X*X-X<X>X>X>X*X>X>X*X",
"<X>X$X<X*X*X<XoX>X<XXX>X<XXX<X<XoX<X;XXX<X*X*X<X;X^.{ R d.x.Y h J G ( O.^ 7.].+X<X*X>X<XoX;X<XXX<X<XXX<X>XXX<X>XXX<X*X*X<X*X>X<X",
"*X>X<XoX>X>X*X<X;X$X<X>X*X<X*X>X<X*X-X<XoX>X<XoX<X-X3.( 0.u.z.Y B  .(  ./ .X<X<X~.%X<X$X<X>X*X<X>X*X<X*X>X<X*X>X<X*X>X<XOX<X>X$X",
">X>X>X>X>X>X>X-X;X>X-X-X>X-X*X-X>X:X>X>X>X-X-X-X;X;XW.2.:XW.u.p.O./ / C G.%X;X&X!.%X;X-X>X>X;X>X>X*X>X-X-X-X>X>X-X>X-X-X>X>X;X-X",
"<X>X*X<X>X>X<X*X-X<X*X>X<XoX<X-XoX<X:X*X<X>X*X<X*X*X<XR.6.K.} h.h.} 3.).!.j.{.+X<X>X*X<X$X;X<X$X<X<XXX<X<X$X<X-XXX<X>X*X<X*X>X<X",
"XX;X<XXX<X>XoX<X>XoX<X>X*X<X*X>X<X*X-X<XXX>X<XXX<X>X$X<XE.2.K.! b.y.h.N.5.U.;X<XXX<X<XoX<X-XOX<X>X*X<X$X*X<X*X>X<X$X<X>XXX<X>XXX",
">X-X:X>X*X>X>X-X-X>X>X>X>X*X>X>X>X-X>X*X-X>X>X>X:X>X>X*X-X<X<X_.! 3.6.E L.<X>X>X-X>X-X>X*X>X;X>X>X;X*X;X;X>X>X>X;X>X-X>X>X-X-X>X",
"<X-X*X<X*X>X<X*X;X<X$X>X<X*X<X>X*X<X>X*X<X>X>X<X*X-X<X*X-X<X$X<X X`. X'.*X<X*X*X<X>X>X<X*X>X<X*X>X>X*X<X>XoX<X-X*X<X>X*X<X*X>X<X",
"XX-X<XXX<X<XXX<X>XoX<X-X*X<X$X>X<XoX-X<XXX>X<XoX<X<XXX<X>XoX<X*X>X<X*X;X<XoX-X<XXX<X>XXX<X>X$X<X>X*X<X*X*X<XoX>X<XXX<X<X$X<X<XXX",
"<X>X>X<X*X>X<X*X;X<X*X>X>X*X>X>X*X<X-X*X<X-X>X<X*X*X<X*X-X<X>X>X>X*X<X>X*X<X>X>X<X>X>X<X>X-X>X*X-X>X*X>X;X*X<X-X>X<X>X*X<X*X>X<X"
};
