/* XPM */
static char *_530b5a460294d46ba0c3d15466343fdU9Kj5GUhmd7I1b7L[] = {
/* columns rows colors chars-per-pixel */
"64 64 86 1 ",
"  c None",
". c #231927",
"X c #2D1D29",
"o c #2E1F31",
"O c #38202B",
"+ c #332337",
"@ c #38263C",
"# c #42242D",
"$ c #4C272F",
"% c #572B31",
"& c #5C2D32",
"* c #612E33",
"= c #6B3235",
"- c #733436",
"; c #763537",
": c #76383F",
"> c #7B393C",
", c #7A393D",
"< c #7D3B3C",
"1 c #432C46",
"2 c #48304C",
"3 c #4E3351",
"4 c #533557",
"5 c #523656",
"6 c #533656",
"7 c #583653",
"8 c #5D3750",
"9 c #573B59",
"0 c #6C3846",
"q c #673749",
"w c #62374C",
"e c #61374F",
"r c #653B4E",
"t c #693F4F",
"y c #6A3F4F",
"u c #713843",
"i c #713844",
"p c #703F4A",
"a c #75484E",
"s c #7E4849",
"d c #684252",
"f c #734650",
"g c #724D57",
"h c #67515D",
"j c #785054",
"k c #705059",
"l c #775259",
"z c #7E5A5C",
"x c #6A5764",
"c c #776B68",
"v c #7A6D6A",
"b c #803939",
"n c #833D3B",
"m c #87413C",
"M c #89433D",
"N c #8A453E",
"B c #8D493F",
"V c #804444",
"C c #824846",
"Z c #8F4B40",
"A c #814C4B",
"S c #854F4C",
"D c #844F4D",
"F c #914C41",
"G c #8A5049",
"H c #945042",
"J c #925542",
"K c #975444",
"L c #9B5845",
"P c #9E5C47",
"I c #965849",
"U c #965C4C",
"Y c #8B5750",
"T c #865D56",
"R c #885851",
"E c #8E5B51",
"W c #9B6647",
"Q c #996A47",
"! c #896058",
"~ c #8C6459",
"^ c #8F695A",
"/ c #9C6B59",
"( c #A06549",
") c #A0724A",
"_ c #A3764C",
"` c #927A71",
/* pixels */
"                                                                ",
"                          464444444444                          ",
"                       666666666666666666                       ",
"                    662111o..........o111266                    ",
"                 66611o..................o11666                 ",
"               662++........................++266               ",
"             666+o............................o+666             ",
"           631o..................................o136           ",
"          66@......................................@ee          ",
"         6qu.......................................$b>r         ",
"         8>b......................................$;bbu         ",
"        70bb*....................................X=MKnbw        ",
"        wnnb*....................................#bFPHbw        ",
"        wNNb;$..................................O=BPPHbw        ",
"        wNNB<*..................................#nFPPH07        ",
"        6yLPb=X.................................bnKPPHw6        ",
"        6wHPmb#.................................bMPPPHe6        ",
"        6wHPHb#................................$MKPBPHw7        ",
"         wHPHb#................................*BKKBPG7         ",
"         6sLHbb#..............................O=CFKBHi6         ",
"         6uHFnn#..............................*bgKKPFu6         ",
"         6uHHNN#..............................*bgPPPKu6         ",
"          uFPKN=..............................*bCPPPFi9         ",
"          7SPPN<..............................*bNPPPG7          ",
"          6sPPFn..............................*bNPPPS6          ",
"          6uPPPN..............................*bNPPPS6          ",
"          6uFPPN$.............................*bWPPPS6          ",
"          6uNLLN*.............................*b)KPPu6          ",
"          6uFHHF*.............................*bQNPPu6          ",
"          68PHHP*.............................*b)KPPi6          ",
"           6FHHP*.............................*bJPPP>           ",
"           6NKKP=O............................*<JPPP<           ",
"           6NPPPb*............................*b_PPPi           ",
"           6NPPPb*............................*b_PPP4           ",
"           6nZPPb*............................*b(PPP7           ",
"            uZZHb*............................*bPPPN            ",
"            wNNHb*............................*bPPPN            ",
"            wNlGb*............................*bPEAn            ",
"            wNv~b;O...........................*bP~Tn            ",
"            wMkjMb#...........................*bIjYs            ",
"            e>chFb#...........................*bGh^f            ",
"             exaHb#...........................*bHa!             ",
"             eS`Hb#...........................*b/`U             ",
"             rKzHb#...........................*bEzP             ",
"             dPPHb%X..........................*bPPP             ",
"             qFPHbb#..........................*bPPF             ",
"              HPPBb#..........................*bPPN             ",
"              SPPFb#..........................*bPPN             ",
"              sLPHb#..........................*bLKN             ",
"              uHPHb#..........................*bHNN             ",
"              >HPHb&                          ;<FMN             ",
"              <HPHbb                          bbFZN             ",
"              bHPHbb                          bbNH              ",
"               MPHbb                          bpKH              ",
"               bPHbb                          >dPF              ",
"                NPNb                          btPB              ",
"                MKNb                          bfHb              ",
"                 MNb                          bbHb              ",
"                 BKnb                         bbN               ",
"                  KBb                         bbb               ",
"                  Fnb                         bb                ",
"                  <bb                         bb                ",
"                   bb                         bb                ",
"                                                                "
};
