/* XPM */
static char *result[] = {
/* columns rows colors chars-per-pixel */
"64 64 10 1 ",
"  c #533656",
". c #5C465F",
"X c #565876",
"o c #803939",
"O c #9E5C47",
"+ c #72847F",
"@ c #A6834E",
"# c #A4B2A0",
"$ c #D9D4C4",
"% c None",
/* pixels */
"%%%%%%%%%%%%%%%%%%%%%%%%%%%%%%%%%%%%%%%%%%%%%%%%%%%%%%%%%%%%%%%%",
"%%%%%%%%%%%%%%%%%%%%%%%%%             %%%%%%%%%%%%%%%%%%%%%%%%%%",
"%%%%%%%%%%%%%%%%%%%%%%                   %%%%%%%%%%%%%%%%%%%%%%%",
"%%%%%%%%%%%%%%%%%%%       oooo...oooo       %%%%%%%%%%%%%%%%%%%%",
"%%%%%%%%%%%%%%%%%     ooooOOOoo.ooOOOoooo     %%%%%%%%%%%%%%%%%%",
"%%%%%%%%%%%%%%   oo@@@OOOOOOOOooo@OOOOOOoOOOOO    %%%%%%%%%%%%%%",
"%%%%%%%%%%%%   ooO@@OOOOOOOOOOooo@OOOOOOoOOOOOOo   %%%%%%%%%%%%%",
"%%%%%%%%%%    oo@@@OOOOOOOOOOOOoO@OOOOOOoOOOOOOoOo   %%%%%%%%%%%",
"%%%%%%%%%%  ooOo@OOOOOOOOOOOOOOoO@OOOOOOoOOOOOOoOOo   %%%%%%%%%%",
"%%%%%%%%  ooOoOoOOOOOOOOOOOOOOOo@OOOOOOOoOOOOOOo@OoOo  %%%%%%%%%",
"%%%%%%%%  oOOoOOoOOOOOOoOOOOOOOo@OOOOOOoOOOOOOoO@OoOoo %%%%%%%%%",
"%%%%%%%   OOOOOOoOOOOOOoOOOOOOOo@OOOOOOoOOOOOOo@OOOOoo  %%%%%%%%",
"%%%%%%%  oOOOOOOoOOOOOOoOOOOOOOo@OOOOOOoOOOOOOo@OOOOoO  %%%%%%%%",
"%%%%%%%  oOOOOOOoOOOOOOoOOOOOOOo@OOOOOOoOOOOOOo@OOOOOO  %%%%%%%%",
"%%%%%%%  oOOOOOOOOOOOOOoOOOOOOOo@OOOOOO.OOOOOOoOOOOOOO  %%%%%%%%",
"%%%%%%%  oOOOOOOOOOOOOOoOOOOOOOooooooOO.OOOOOOoOOOOOOO  %%%%%%%%",
"%%%%%%%   OOOOOOOOOOOOOoOOOOOOOoO@@@@o..OOOOOoOOOOOOOO  %%%%%%%%",
"%%%%%%%   OOOOOOOOOOOOOoOOOOOOOo@@OOOOO.OOOOOoOOOOOOOO  %%%%%%%%",
"%%%%%%%%  OOOOOOOO@OOOOoOOOOOOOo@OOOOOOoOOOOOoOOOOOOOo %%%%%%%%%",
"%%%%%%%%  OOOOOOOo@OOOOoOOOOOOOo@OOOOOOoOOOOOoOOOOOOOo %%%%%%%%%",
"%%%%%%%%  OOOOOOOo@OOOOoOOOOOOOo@OOOOOOoOOOOOOOOOOOOO  %%%%%%%%%",
"%%%%%%%%  OOOOOOOo@OOOOoOOOOOOOo@OOOOOOoOOOOOOOOOOOOO  %%%%%%%%%",
"%%%%%%%%% OOOOOOOo@OOOOOoOOOOOOo@OOOOOoOOOOOOOOOOOOOO %%%%%%%%%%",
"%%%%%%%%% oOOOOOOoOOOOOOoOOOOOOo@OOOOOoOOOOOOOOOOOOOo %%%%%%%%%%",
"%%%%%%%%% oOOOOOOOoOoooOoOOOOOOo@OOOOOoOOOOOOOOOOOOOo %%%%%%%%%%",
"%%%%%%%%%  OOOOOOO.oO@@OoOOOOOOoOOOOOOoOOOOOOOOOOOOO  %%%%%%%%%%",
"%%%%%%%%%% OOOOOOO.@@OOOoOOOOOOoOOOOOOoOOOOOOOOOOOOO  %%%%%%%%%%",
"%%%%%%%%%% OOOOOOO.@OOOOoOOOOOOoOOOOOOoOOOOOO@OOOOOO  %%%%%%%%%%",
"%%%%%%%%%% oOOOOOOoOOOOOOOOOOOOoOOOOOOoOOOOOO@OOOOOo  %%%%%%%%%%",
"%%%%%%%%%%  @OOOOOoOOOOOOOOOOOOoOOOOOOoOOOOOO@OOOOO   %%%%%%%%%%",
"%%%%%%%%%%  @OOOOOoOOOOOOOOOOOOoOOOOOOoOOOOOO@OOOOO   %%%%%%%%%%",
"%%%%%%%%%%  O@OOOOoOOOOOOOOOOOOoOOOOOOOOOOOOO@OOOOO  %%%%%%%%%%%",
"%%%%%%%%%%  o@OOOOOOOOOOOOOOOOOoOOOOOOOOOOOOo@OOOOO  %%%%%%%%%%%",
"%%%%%%%%%%   @OOOOOOOXXOoXXOOOOoOOOOXXoOoXOOoOOOOO   %%%%%%%%%%%",
"%%%%%%%%%%   @OOOOOOX# OO +XOOOoOOOO# OOO+XOoOOOOO   %%%%%%%%%%%",
"%%%%%%%%%%   @OOOOOO# oOOO +OOOoOOOO oOOO +OoOOOOO   %%%%%%%%%%%",
"%%%%%%%%%%%  OOOOOOO+XoOOOX#OOOoOOOOXoOOOX#ooOOOOO  %%%%%%%%%%%%",
"%%%%%%%%%%%  oOOOOOO +++#$$ OOOoOOOO$#+++# ooOOOOO  %%%%%%%%%%%%",
"%%%%%%%%%%%   OOOOOOO XX   oOOOoOOOO XXX  oOoOOOOO  %%%%%%%%%%%%",
"%%%%%%%%%%%   OOOOOOOOoooooOOOOoOOOOOoooooOOoOOOOO  %%%%%%%%%%%%",
"%%%%%%%%%%%   OOOOOOOOOOOoOOOOOo@@@@OoOOOOOOoOOOOO  %%%%%%%%%%%%",
"%%%%%%%%%%%%  OOOOOOOOOOOoOOOOOoOOOOOoOOOOOOoOOOOO %%%%%%%%%%%%%",
"%%%%%%%%%%%%  OOOOOOOOOOOoOOOOOoOOOOOoOOOOOOoOOOOO %%%%%%%%%%%%%",
"%%%%%%%%%%%%  OOOOOOOOOOOoOOOOOoOOOOOoOOOOOOOOOOOO %%%%%%%%%%%%%",
"%%%%%%%%%%%%  OOOOOOOOOOOoOOOOOoOOOOOoOOOOOOOOOOOO %%%%%%%%%%%%%",
"%%%%%%%%%%%%  OOOOOOOOOOOoOOOOOoOOOOOoOOOOOOOOOOO  %%%%%%%%%%%%%",
"%%%%%%%%%%%%  OOOOOOOoOOOoOOOOOoOOOOOoOOOOOOoOOOO  %%%%%%%%%%%%%",
"%%%%%%%%%%%%% OOOOOOOoOOOooOOOOoOOOOoOOOOOOOoOOOO %%%%%%%%%%%%%%",
"%%%%%%%%%%%%% OOoOOoOooOOooOOOOoOOOO.OOOOOOO.OOOO %%%%%%%%%%%%%%",
"%%%%%%%%%%%%% ooooo.ooooo.oOOOOoOOOO.OOOOOOo.ooo. %%%%%%%%%%%%%%",
"%%%%%%%%%%%%% .....o.........ooo................. %%%%%%%%%%%%%%",
"%%%%%%%%%%%%%%%%%%%%%%%%%%%%%%%%%%%%%%%%%%%%%%%%%%%%%%%%%%%%%%%%",
"%%%%%%%%%%%%%%%%%%%%%%%%%%%%%%%%%%%%%%%%%%%%%%%%%%%%%%%%%%%%%%%%",
"%%%%%%%%%%%%%%%%%%%%%%%%%%%%%%%%%%%%%%%%%%%%%%%%%%%%%%%%%%%%%%%%",
"%%%%%%%%%%%%%%%%%%%%%%%%%%%%%%%%%%%%%%%%%%%%%%%%%%%%%%%%%%%%%%%%",
"%%%%%%%%%%%%%%%%%%%%%%%%%%%%%%%%%%%%%%%%%%%%%%%%%%%%%%%%%%%%%%%%",
"%%%%%%%%%%%%%%%%%%%%%%%%%%%%%%%%%%%%%%%%%%%%%%%%%%%%%%%%%%%%%%%%",
"%%%%%%%%%%%%%%%%%%%%%%%%%%%%%%%%%%%%%%%%%%%%%%%%%%%%%%%%%%%%%%%%",
"%%%%%%%%%%%%%%%%%%%%%%%%%%%%%%%%%%%%%%%%%%%%%%%%%%%%%%%%%%%%%%%%",
"%%%%%%%%%%%%%%%%%%%%%%%%%%%%%%%%%%%%%%%%%%%%%%%%%%%%%%%%%%%%%%%%",
"%%%%%%%%%%%%%%%%%%%%%%%%%%%%%%%%%%%%%%%%%%%%%%%%%%%%%%%%%%%%%%%%",
"%%%%%%%%%%%%%%%%%%%%%%%%%%%%%%%%%%%%%%%%%%%%%%%%%%%%%%%%%%%%%%%%",
"%%%%%%%%%%%%%%%%%%%%%%%%%%%%%%%%%%%%%%%%%%%%%%%%%%%%%%%%%%%%%%%%",
"%%%%%%%%%%%%%%%%%%%%%%%%%%%%%%%%%%%%%%%%%%%%%%%%%%%%%%%%%%%%%%%%"
};
