/* XPM */
static char *result[] = {
/* columns rows colors chars-per-pixel */
"64 64 72 1 ",
"  c #262523",
". c #282725",
"X c #2B2A26",
"o c #292729",
"O c #2D2C2A",
"+ c #312D25",
"@ c #312E2B",
"# c #33322D",
"$ c #39362E",
"% c #3C3A2F",
"& c #2F2D31",
"* c #302E32",
"= c #363531",
"- c #393632",
"; c #373833",
": c #3B3934",
"> c #37363A",
", c #393738",
"< c #3C3A39",
"1 c #423E35",
"2 c #424133",
"3 c #43423B",
"4 c #49463D",
"5 c #4D4A3E",
"6 c #534D3E",
"7 c #474642",
"8 c #494642",
"9 c #4E4C43",
"0 c #4E4D48",
"q c #514E44",
"w c #514E49",
"e c #555145",
"r c #595445",
"t c #5F5A47",
"y c #555249",
"u c #59554A",
"i c #5D594A",
"p c #595450",
"a c #5E5B52",
"s c #615C4D",
"d c #635F52",
"f c #676256",
"g c #6C6655",
"h c #6E6955",
"j c #676358",
"k c #6C6659",
"l c #6E695A",
"z c #706756",
"x c #716A56",
"c c #71675B",
"v c #726B5A",
"b c #786F5E",
"n c #76715D",
"m c #78725E",
"M c #756D61",
"N c #767061",
"B c #797361",
"V c #7D7C6D",
"C c #837F6D",
"Z c #817F72",
"A c #86846D",
"S c #89856E",
"D c #8A896E",
"F c #868472",
"G c #8A8672",
"H c #8C8A74",
"J c #888679",
"K c #8D8B79",
"L c #918D76",
"P c #918E7A",
"I c #919176",
"U c #92917A",
/* pixels */
"HHHHHHHHUAUH+XO,HHIHHDLLHHKHFJ:#HGBvKHHDHLDHHF-@xbGLDHHIHDKDID: ",
"ALFFHADHAAHF2$O<CFDDDHHHGFFHKF:$SGhvFFIHAHADPF2-zbCGDHAAJFHFKZ:.",
"IFirnnnbBnlnjf;@eslBbnvvurrriy@<LHreyilvuivvrrflxvmmnhuruuueuu#*",
"DHeexghvhvhvBv%#5uglhllkqe58q8+=FVu9qufvrqjk6eBvxxxzhgre9e0984#O",
"GJyqbvvmxbbxvl9qlvnxxvbNMjuqyw=O<10ekbvncMMvnhxgvvvvnMklbjyer9;.",
"UGrqlxvlvzhxvvuwlvhhxxxznkuq8w#@@=qrgvhhvvvkvhvvvvvxvbvcvgre55;X",
"HGNcnxxvxxvnxj6qlvvvvvvzhxvluw+#kkvzxbxxbgvvvvbgvzcvhvvvxvMli9#O",
"HANcvxvvvxhxxbqucvvvxvvvxxxvwwX-xmxvzvbxxxbxxvgbNcbvxvvxvvvju8#@",
"vvbvvvvvvvxvvxvvwrvvvxvvye9eyyO>DHyqvxvbvvvxvvvxxvvxvxvvxvMcr4-O",
"bxvxvbvcvxvvvvvvqtgvvvzg59eu00O;GFyrvxvgvvvvzvvvvvvvvvvvvvkdy5-O",
"HAmxvhzvvvxvvvvxxxvnvkueyq599eO;AHbjvxxbvvvvvvvvvvvvvvhvvxirq5#o",
"LGvgvhvvvvvvxvvvxnxxvvqqyq9yew+;HGbvbxzvvvxvvxvvvvvvxvvvvxeqq9=O",
"DSvxbvvvvxvvvvvxhhhxvle54yfge9+:SHbgvvxxvxvvvvxvxvvvvvxvvle9y9$O",
"LHxgMvvxvvvxvvvvnnxxvhiertlMe9O:GLbjxxvmvvvxvxvvvvvxvvvvvvy9y9*O",
"HAtrgzbvvvvvcvvvvgnvvnhflglge9O;HFuqvxvkvvvvvzvvvvvvxvvvxhy009#o",
"IAuekvvxxvvvxvvxngnhvlnxnhnle9@:AHeqlhvbzvvvvvvvvvxvvvvvvhyew0;X",
"KAnhxxvxvvvvvvxvbvvxvvbvnhe5eeO;DDrw+%gnvvvvvvvvvxvvvvvvye59e0O.",
"HAnhhxvvvvlhvxgxlhvvvvgllvree9O=AFp3:1dnvxvvvvxvvvgvvxxzeyeee9=@",
"nnhhnvvhxxxvnvvvvvvvvvvbvg6900@@<<X#klvhvvxvxvvvvvvvvvxzq559q0=.",
"hnhhvvvhxvxhvvxvvvxvxxvvnhre90#@@=$%lNvxvxvvvvxvvxvzvvvvuqerq9=.",
"GAnxvxvvnnvlvzgvhvlNmvvxhmMjy9@#jklgxxvMvvvvvxvvxvxvvvvzkklhy4=@",
"UDnhvlnhjllgvbvbxnglljbxhmlfy0#=nnhnxvvgvzvvvvvvvvvvvvvvnnlfy9=O",
"HAnhvvvhyeeijvxhvlreerxvvheey0#;ASnxzzvbvvvxvvvvvxvvvvvvvfrew0#o",
"PSmxvhlhe99rjNvxvhr99egvnx65w9X;HHxxbvvzxvvvxvvxgvvgvvvxnhr5q0#&",
"HGmzvvewwyqwlmhnvvuqywqulM9ye0O=DGieMvhxvzzvvmvxyerevlvvhne6y0O@",
"DHxgnleewyqrllghvle5y99ekkey40@<SGr9lvvnvvvvxghge9e9vvvhlj9e89@O",
"HAttvge89q4elliemve9q9qquu89;# ;DHe5ngvvxvbgt6er999eMlnhue9e;=#O",
"HF66lgiwye5uljr5gjeqeqqq599q#O.<DHeelgvlllcfe5qqyyyukllhe999@O*#",
"KKu9re9q9q99re0eyue9ywwweqyw@X.:DGe5a9ueeery90e09995eweey0;#@*oo",
"FFa9q99w0ywe0ewy9q9q00w0w907#@O:FZi9e490q59q9wwewwyq099997=+##O;",
":%.XX#+#XXX@@@X.@@@@XX#@X+@@.@X*::OXO+###X+@O@XX@X@OO+@OO=O o.o#",
"$$,<;:#;><;;==;:-$@==;<-,;;;;<@O#=,:;;##;;,:;,::-=:;;::;==::<,#O",
"DDHFHDhvDDHDHGDGFHe5HHAHDASDID;@DDFDDDvhGSGHDGHHDHADGAHGHDHDSF:.",
"HGFALDnxHHFHHGGGKAurFHHDHKDAAV;<DIJGKFnvSSLGGGDLFFHLHHFFHAFFHF:o",
"KFfrlvxvvnvvvhsretjvNvnvwuueui.>AFayre9urshvbvvvuuMcbvrreiuruu#=",
"KFe5hxxvxvvvvjr66elbglxxwe9550O<HJe3eeee6ujvvvxxeqlvkvqw5y8q48O&",
"KFurxvvxvvvlvvllvgvxvBxvvlye9qX=HKurglvlkcMMvvxxvgbvvmgvvlerye;X",
"KFiehxxvvvvxMvvNxbnbvvgvnhe90e+:SAeefhvMMvvvvvvxvxhzhhxxvje945#@",
"KGlgmvvvhvvvnlghvvgxhnlnhh99e9X=DHllvnvlhhhxvvvxvvvmxxbxxvlMr9#O",
"DDmgvxxvhnhhvvvccvvmhvlvxhuyy9@<DHNvlhhnvnvvvvlvcvvvxbzxvvMle9@&",
"UAmhhnhhvvvvvvvvvvvvvvvvvvvkr0+-DGblnhvvvvvxvvvxvxvvvvvvxvxhy5=O",
"GAmnnxhxvxvzvvvvvvvxxvxvvvvcwq@-DHbfvxvvvvvvvvvvvvvvvxvvxvxle5#O",
"nnhxvvvvvvvvxvvvvvvvvxvvvxbkrq@=gverlxvvvvvvvzvvvvvxvvxvvxvl99#O",
"xxhxvxvvvvxvvvvxvvvvvvvvvlbkeq@=hvqwvvxxvvxvvvxvxvvvvxvvvvnle9=o",
"GABbbvvvvvzvzvvxvvvvvvvvzvvkr9@=HFuqgxxvxvvvvvvvvvvxvvxvvvlle0#X",
"PHvfvlvlvvvvvvvvvzvxvxvzvvbkeq@=HGsrzvvcvvvxvzxvvvvvvvvvvvgfe9#@",
"GCteklvxvxvxvvvvvvvvxvvvvvvkeq@:GGzkvxvvvvvvvvxvvvvvvxvxnhiuww@@",
"LStqcbvxvvvvvvvxvvvvvvvvvvble9+-DGMcnxvvvxvvvvvvvvvxvvvvxg69ww@O",
"LLxzvvvxvvvvvxvvvvvxvvvvvxble9##hnhvvxbvvvxxnvcvxvvvvvzvqqe9y9@X",
"SAmvvvvvvvxvvvvvxvvvvvvvxvvjy9X:xmhhvlvcvvvxxvvvvvvvvxvxyqeqy0#X",
"yilvvvvvvxvvxvvxvvzvzvvxxhreqqX:DAnvvxvcbhvxhxvvvvvvvvzvq569qq$O",
"8qMvvvvcvvvvvvvvvvvvvvvvvgrqqq@-GDnxlvbvvvvnvxvvvvvvvvvvueyrq9#O",
"@<gvvvvcvvvvvvxvvvvvvvvvxvvju0O-hnhhvvvzvvvbcvvvxvvzvvvzvjkjy0@O",
"$4fvbvcvxvvzvvvvvxvxvvxvvvvkw0@$vnxhvvvzvhgjvcvvvvvvvvxvnvble0@O",
"GABvzxvvvvvvvvvvvvvvxvvvvgtqww@-GAmlvvvvvgttvbhvvvvxvxvvxxvlq0#O",
"DHxxxvvxvvvxvvvxvvvzvvxvxvq5ewX<HDmhvvvzvg66jbgvvxvvvvvvvgxxqq#O",
"IAi6nhnhzblhnvhbbzzvcbbveee9ee@;FKeenxvxvc-:lxxvvvvvvvvhvveqy0@O",
"DFu9hghxvhvvvhvlvvvbhjkkee5509+=HGirjxcvxl:#jhhvvvvvvvvbvveqyw=@",
"IFu9uwyuchNlrulbvvbkiqrr5e9eywO;HHMjuyeuvk@Xre6evzvvvvvzre4qw0#o",
"DCy59q9wljll56jlggvdr5qq9y0709O<GGvjeq9qvj1=55eekvzvvkvzqqqu08-@",
"IAi9ew9eeeeyeerereure9qq09-@@#.;KDreqy0eer97#$0uqqeewrqqwyy9$@OO",
"DVi5995089879e88q89090w090-@O#O<CA65qe9950w0@@70qq6qq9q60008#OO#",
"2<#.#@#=====@##;=#==#####=OOo&O#23=###@=###-o*=#@=@@##=#@===@OOO",
" O*o=XXXOXO@XOOX&oO@XXOO@@o=O#Ooo &&o#O.O@ O@*OoOO&@&OoOO@oOO#O*"
};
