/* XPM */
static char *result[] = {
/* columns rows colors chars-per-pixel */
"64 64 15 1 ",
"  c #000001",
". c #4A2920",
"X c #0D420D",
"o c #107B29",
"O c #734120",
"+ c #A47B41",
"@ c #41A429",
"# c yellow",
"$ c #DEAC52",
"% c #31529C",
"& c #00BAFF",
"* c #D5B48B",
"= c #FFE6BD",
"- c white",
"; c None",
/* pixels */
";;;;;;;;;;;;;;;;;;;+++OOOoooXX@@@@@@@@@ooo;;;;;;;;;;;;;;;;;;;;;;",
";;;;;;;;;;;;;;;;;;;+++OOOoooXX@@@@@@@@@ooo;;;;;;;;;;;;;;;;;;;;;;",
";;;;;;;;;;;;;;;;;;;+++OOOoooXX@@@@@@@@@ooo;;;;;;;;;;;;;;;;;;;;;;",
";;;;;;;;;;;;;+++$$$######@@@XX@@@@@@@@@@@@oooooo;;;;;;;;;;;;;;;;",
";;;;;;;;;;;;;+++$$$######@@@XX@@@@@@@@@@@@oooooo;;;;;;;;;;;;;;;;",
";;;;;;;;;;;;;+++$$$######@@@XX@@@@@@@@@@@@oooooo;;;;;;;;;;;;;;;;",
";;;;;;;;;;+++###++++++$$$$$$@@XXX@@@@@@@@@@@@oooXXX;;;;;;;;;;;;;",
";;;;;;;;;;+++###++++++$$$$$$@@XXX@@@@@@@@@@@@oooXXX;;;;;;;;;;;;;",
";;;;;;;;;;+++###++++++$$$$$$@@XXX@@@@@@@@@@@@oooXXX;;;;;;;;;;;;;",
";;;;;;;+++###+++$$$+++###+++@@XXX@@@@@@@@@oooooooooXXX;;;;;;;;;;",
";;;;;;;+++###+++$$$+++###+++@@XXX@@@@@@@@@oooooooooXXX;;;;;;;;;;",
";;;;;;;+++###+++$$$+++###+++@@XXX@@@@@@@@@oooooooooXXX;;;;;;;;;;",
";;;;;;;OOO###$$$OOO***###+++##@@@XXXXXXXXXoooooooooXXX;;;;;;;;;;",
";;;;;;;OOO###$$$OOO***###+++##@@@XXXXXXXXXoooooooooXXX;;;;;;;;;;",
";;;;;;;OOO###$$$OOO***###+++##@@@XXXXXXXXXoooooooooXXX;;;;;;;;;;",
";;;;;;;;;;+++OOO******++++++##oooXXXooooooooooooooooooXXX;;;;;;;",
";;;;;;;;;;+++OOO******++++++##oooXXXooooooooooooooooooXXX;;;;;;;",
";;;;;;;;;;;;;   ***===***###+++++oooXXXoooXXXXXXooooooXXX;;;;;;;",
";;;;;;;;;;;;;   ***===***###+++++oooXXXoooXXXXXXooooooXXX;;;;;;;",
";;;;;;;;;;;;;   ***===***###+++++oooXXXoooXXXXXXooooooXXX;;;;;;;",
";;;;;;;;;;;;;   OOO   ===###++OOOXXXoooXXXXXX   XXXooo   ;;;;;;;",
";;;;;;;;;;;;;   OOO   ===###++OOOXXXoooXXXXXX   XXXooo   ;;;;;;;",
";;;;;;;;;;;;;   OOO   ===###++OOOXXXoooXXXXXX   XXXooo   ;;;;;;;",
";;;;;;;;;;   ***%%%---===+++$$OOO***======XXX   XXXXXX   ;;;;;;;",
";;;;;;;;;;   ***%%%---===+++$$OOO***======XXX   XXXXXX   ;;;;;;;",
";;;;;;;;;;   ***%%%---===+++$$OOO***======XXX   XXXXXX   ;;;;;;;",
";;;;;;;;;;   ***%%%---===OOO##   ======+++   ;;;   ooo   ;;;;;;;",
";;;;;;;;;;   ***%%%---===OOO##   ======+++   ;;;   ooo   ;;;;;;;",
";;;;;;;;;;   ***%%%---===OOO##   ======+++   ;;;   ooo   ;;;;;;;",
";;;;;;;;;;;;;   ***======OOO##   &&&+++      ;;;   XXX   ;;;;;;;",
";;;;;;;;;;;;;   ***======OOO##   &&&+++      ;;;   XXX   ;;;;;;;",
";;;;;;;;;;;;;   ***======OOO##   &&&+++      ;;;   XXX   ;;;;;;;",
";;;;;;;;;;;;;;;;   ******OOO##         $$$###;;;;;;   ;;;;;;;;;;",
";;;;;;;;;;;;;;;;   ******OOO##         $$$###;;;;;;   ;;;;;;;;;;",
";;;;;;;;;;;;;;;;   ******OOO##         $$$###;;;;;;   ;;;;;;;;;;",
";;;;;;;;;;;;;;;;;;;   XXX   $$   oooXXX   ;;;;;;;;;;;;;;;;;;;;;;",
";;;;;;;;;;;;;;;;;;;   XXX   $$   oooXXX   ;;;;;;;;;;;;;;;;;;;;;;",
";;;;;;;;;;;;;;;;;;;   XXX   $$   oooXXX   ;;;;;;;;;;;;;;;;;;;;;;",
";;;;;;;;;;;;;;;;   ooooooooo  OOO   ooo   ;;;;;;;;;;;;;;;;;;;;;;",
";;;;;;;;;;;;;;;;   ooooooooo  OOO   ooo   ;;;;;;;;;;;;;;;;;;;;;;",
";;;;;;;;;;;;;;;;   ooooooooo  OOO   ooo   ;;;;;;;;;;;;;;;;;;;;;;",
";;;;;;;;;;;;;   ###oooooo   ooooo   ooo   ;;;;;;;;;;;;;;;;;;;;;;",
";;;;;;;;;;;;;   ###oooooo   ooooo   ooo   ;;;;;;;;;;;;;;;;;;;;;;",
";;;;;;;;;;;;;   ###oooooo   ooooo   ooo   ;;;;;;;;;;;;;;;;;;;;;;",
";;;;;;;;;;;;;   oooOOOOOO   -----   ......   ;;;;;;;;;;;;;;;;;;;",
";;;;;;;;;;;;;   oooOOOOOO   -----   ......   ;;;;;;;;;;;;;;;;;;;",
";;;;;;;;;;;;;   oooOOOOOO   -----   ......   ;;;;;;;;;;;;;;;;;;;",
";;;;;;;;;;;;;   @@@@@@@@@   .....   ...ooo   ;;;;;;;;;;;;;;;;;;;",
";;;;;;;;;;;;;   @@@@@@@@@   .....   ...ooo   ;;;;;;;;;;;;;;;;;;;",
";;;;;;;;;;;;;;;;   @@@ooo   OOOOO   @@@   ;;;;;;;;;;;;;;;;;;;;;;",
";;;;;;;;;;;;;;;;   @@@ooo   OOOOO   @@@   ;;;;;;;;;;;;;;;;;;;;;;",
";;;;;;;;;;;;;;;;   @@@ooo   OOOOO   @@@   ;;;;;;;;;;;;;;;;;;;;;;",
";;;;;;;;;;;;;;;;;;;         ==***      ;;;;;;;;;;;;;;;;;;;;;;;;;",
";;;;;;;;;;;;;;;;;;;         ==***      ;;;;;;;;;;;;;;;;;;;;;;;;;",
";;;;;;;;;;;;;;;;;;;         ==***      ;;;;;;;;;;;;;;;;;;;;;;;;;",
";;;;;;;;;;;;;;;;   OOO......        ;;;;;;;;;;;;;;;;;;;;;;;;;;;;",
";;;;;;;;;;;;;;;;   OOO......        ;;;;;;;;;;;;;;;;;;;;;;;;;;;;",
";;;;;;;;;;;;;;;;   OOO......        ;;;;;;;;;;;;;;;;;;;;;;;;;;;;",
";;;;;;;;;;;;;;;;   OOOOOO...     ;;;;;;;;;;;;;;;;;;;;;;;;;;;;;;;",
";;;;;;;;;;;;;;;;   OOOOOO...     ;;;;;;;;;;;;;;;;;;;;;;;;;;;;;;;",
";;;;;;;;;;;;;;;;   OOOOOO...     ;;;;;;;;;;;;;;;;;;;;;;;;;;;;;;;",
";;;;;;;;;;;;;;;;;;;         ;;;;;;;;;;;;;;;;;;;;;;;;;;;;;;;;;;;;",
";;;;;;;;;;;;;;;;;;;         ;;;;;;;;;;;;;;;;;;;;;;;;;;;;;;;;;;;;",
";;;;;;;;;;;;;;;;;;;         ;;;;;;;;;;;;;;;;;;;;;;;;;;;;;;;;;;;;"
};
