/* XPM */
static char *result[] = {
/* columns rows colors chars-per-pixel */
"64 64 186 2 ",
"   c #000001",
".  c #000002",
"X  c #040A04",
"o  c #030F05",
"O  c #031104",
"+  c #051B0B",
"@  c #041F0B",
"#  c #0A1B0A",
"$  c #1D1009",
"%  c #171D0A",
"&  c #381F18",
"*  c #072107",
"=  c #0F260B",
"-  c #07280B",
";  c #05290E",
":  c #082909",
">  c #19230E",
",  c #10290B",
"<  c #0A320A",
"1  c #1A2B11",
"2  c #083E15",
"3  c #3B3B02",
"4  c #28221B",
"5  c #3A2111",
"6  c #352D24",
"7  c #3D362D",
"8  c #3E3737",
"9  c #452714",
"0  c #443C1A",
"q  c #563118",
"w  c #4A2920",
"e  c #523E21",
"r  c #5D3E22",
"t  c #403A30",
"y  c #693B20",
"u  c #0D420D",
"i  c #0B4010",
"p  c #0D4911",
"a  c #0E4D12",
"s  c #1B4712",
"d  c #164619",
"f  c #0E5014",
"g  c #0E5718",
"h  c #0C561B",
"j  c #0E5B19",
"k  c #0F5F1B",
"l  c #0C591C",
"z  c #0C5C1F",
"x  c #1A5B14",
"c  c #215215",
"v  c #0F661F",
"b  c #1C6C1F",
"n  c #1E6C1F",
"m  c #216718",
"M  c #25711F",
"N  c #317B1F",
"B  c #0F6D22",
"V  c #0F7024",
"C  c #107426",
"Z  c #107B29",
"A  c #296D27",
"S  c #227C22",
"D  c #357727",
"F  c #404001",
"G  c #5A411B",
"H  c #425E25",
"J  c #5A5022",
"K  c #534333",
"L  c #5C4D3C",
"P  c #5F5332",
"I  c #69462C",
"U  c #734120",
"Y  c #635023",
"T  c #6F562A",
"R  c #7F5028",
"E  c #7F5733",
"W  c #4E7A26",
"Q  c #47742F",
"!  c #5A7325",
"~  c #5A7B35",
"^  c #7F7B3B",
"/  c #002F41",
"(  c #253E57",
")  c #397547",
"_  c #315273",
"`  c #524A4A",
"'  c #6B5A46",
"]  c #424E7D",
"[  c #595C78",
"{  c #8E5C2D",
"}  c #8C5E31",
"|  c #8C5E3B",
" . c #846531",
".. c #986D39",
"X. c #9B703B",
"o. c #A97739",
"O. c #8D7154",
"+. c #A47B40",
"@. c #A47B41",
"#. c #A87E42",
"$. c #A57A4E",
"%. c #A47B56",
"&. c #168029",
"*. c #1C8529",
"=. c #228326",
"-. c #228A29",
";. c #348C22",
":. c #299029",
">. c #2F9529",
",. c #379224",
"<. c #399024",
"1. c #359A29",
"2. c #3B9F29",
"3. c #4C9C1F",
"4. c #5BA31C",
"5. c #71BB1F",
"6. c #4F8920",
"7. c #41A429",
"8. c #68A633",
"9. c #4C9C5F",
"0. c #68804F",
"q. c #92A708",
"w. c #BFBF00",
"e. c #B9A010",
"r. c #B29420",
"t. c #BD9A2D",
"y. c #A7813E",
"u. c #BB9C31",
"i. c #B4AD26",
"p. c #C0B412",
"a. c #CBB61C",
"s. c #C09D38",
"d. c #D2BD21",
"f. c #C3DE0A",
"g. c #E8DE10",
"h. c #C9E30A",
"j. c #D0E80A",
"k. c yellow",
"l. c #F7EA15",
"z. c #D9C323",
"x. c #E2CE20",
"c. c #EFD629",
"v. c #E6C13E",
"b. c #B38745",
"n. c #B88842",
"m. c #BF8F45",
"M. c #B58B50",
"N. c #B08954",
"B. c #869465",
"V. c #A08769",
"C. c #AE8F6C",
"Z. c #A3986C",
"A. c #BB9660",
"S. c #BD9866",
"D. c #BD9770",
"F. c #ABA477",
"G. c #C39146",
"H. c #CA9F47",
"J. c #D0A04E",
"K. c #DEAC52",
"L. c #C9A67E",
"P. c #D2B17F",
"I. c #31529C",
"U. c #5A6B98",
"Y. c #727E8B",
"T. c #29AAD0",
"R. c #00BAFF",
"E. c #98A9B9",
"W. c #A0A3AF",
"Q. c #D5B48B",
"!. c #D4B38C",
"~. c #DDBE8F",
"^. c #C3BD91",
"/. c #DCBD96",
"(. c #C3C495",
"). c #C3CB98",
"_. c #E0C198",
"`. c #E5C79E",
"'. c #EACDA4",
"]. c #F5DAB1",
"[. c #F7DDB4",
"{. c #FFE6BD",
"}. c #BFBFC0",
"|. c #CCD4E6",
" X c white",
".X c None",
/* pixels */
".X.X.X.X.X.X.X.X.X.X.X.X.X.X.X.X.X.X.X.X.X.XZ Z :.7.7.7.7.7.7.7.7.x u u Z Z Z U U U @.@.+..X.X.X.X.X.X.X.X.X.X.X.X.X.X.X.X.X.X.X",
".X.X.X.X.X.X.X.X.X.X.X.X.X.X.X.X.X.X.X.X.X.XZ Z :.7.7.7.7.7.7.7.7.x u u Z Z Z U U U @.@.+..X.X.X.X.X.X.X.X.X.X.X.X.X.X.X.X.X.X.X",
".X.X.X.X.X.X.X.X.X.X.X.X.X.X.X.X.X.X.X.X.X.XZ Z :.7.7.7.7.7.7.7.7.x u u Z Z Z U U U @.@.+..X.X.X.X.X.X.X.X.X.X.X.X.X.X.X.X.X.X.X",
".X.X.X.X.X.X.X.X.X.X.X.X.X.X.X.XZ Z Z Z Z :.7.7.7.7.7.7.7.7.7.7.7.x u u 7.7.7.k.k.k.k.k.l.K.K.J.@.@..X.X.X.X.X.X.X.X.X.X.X.X.X.X",
".X.X.X.X.X.X.X.X.X.X.X.X.X.X.X.XZ Z Z Z Z :.7.7.7.7.7.7.7.7.7.7.7.x u u 7.7.7.k.k.k.k.k.l.K.K.J.@.@..X.X.X.X.X.X.X.X.X.X.X.X.X.X",
".X.X.X.X.X.X.X.X.X.X.X.X.X.X.X.XZ Z &.*.*.>.7.7.7.7.7.7.7.7.,.;.;.m x x 8.8.8.l.l.l.g.g.x.J.J.H.u.u..X.X.X.X.X.X.X.X.X.X.X.X.X.X",
".X.X.X.X.X.X.X.X.X.X.X.X.Xu u f Z Z :.7.7.7.7.7.7.7.7.7.7.7.x u u ;.7.7.K.K.K.K.K.K.@.@.@.@.@.u.k.k.d.@.@..X.X.X.X.X.X.X.X.X.X.X",
".X.X.X.X.X.X.X.X.X.X.X.X.Xu u f Z Z :.7.7.7.7.7.7.7.7.7.7.7.x u u ;.7.7.K.K.K.K.K.K.@.@.@.@.@.u.k.k.d.@.@..X.X.X.X.X.X.X.X.X.X.X",
".X.X.X.X.X.X.X.X.X.X.X.X.Xf f j Z Z -.1.1.2.7.7.7.7.7.7.7.7.x u u ;.7.7.J.J.J.v.v.v.@.@.#.b.b.s.g.g.d.u.u..X.X.X.X.X.X.X.X.X.X.X",
".X.X.X.X.X.X.X.X.X.Xu u f Z Z Z Z Z Z Z Z :.7.7.7.7.7.7.7.7.x u u ;.7.7.@.@.@.k.k.k.@.@.b.K.K.J.@.@.d.k.k.d.@.@..X.X.X.X.X.X.X.X",
".X.X.X.X.X.X.X.X.X.Xu u f Z Z Z Z Z Z Z Z :.7.7.7.7.7.7.7.7.x u u ;.7.7.@.@.@.k.k.k.@.@.b.K.K.J.@.@.d.k.k.d.@.@..X.X.X.X.X.X.X.X",
".X.X.X.X.X.X.X.X.X.Xu u f Z Z Z Z Z Z Z Z =.;.;.;.;.;.;.;.;.m x x 4.5.5.@.@.@.k.k.k.N.N.M.G.G.m.b.b.z.k.k.a......X.X.X.X.X.X.X.X",
".X.X.X.X.X.X.X.X.X.Xu u f Z Z Z Z Z Z Z Z k u u u u u u u u ;.7.7.j.k.k.@.@.@.k.k.k.Q.Q.D.U U { K.K.c.k.k.e.U U .X.X.X.X.X.X.X.X",
".X.X.X.X.X.X.X.X.X.Xu u f Z Z Z Z Z Z Z Z k u u u u u u u u ;.7.7.j.k.k.@.@.@.k.k.k.Q.Q.D.U U { K.K.c.k.k.e.U U .X.X.X.X.X.X.X.X",
".X.X.X.X.X.X.X.X.X.Xk k v Z Z Z Z Z Z Z Z B k k k k k p u u S :.:.h.k.k.@.@.@.d.d.d.Q.Q.L.%.%.$.o.o.t.d.d.r..X.X.X.X.X.X.X.X.X.X",
".X.X.X.X.X.X.Xu u u Z Z Z Z Z Z Z Z Z Z Z Z Z Z Z Z Z f u u B Z Z f.k.k.@.@.@.@.@.@.Q.Q.Q.Q.Q.D.U U } @.@..X.X.X.X.X.X.X.X.X.X.X",
".X.X.X.X.X.X.Xu u u Z Z Z Z Z Z Z Z Z Z Z Z Z Z Z Z Z f u u B Z Z f.k.k.@.@.@.@.@.@.Q.Q.Q.Q.Q.D.U U } @.@..X.X.X.X.X.X.X.X.X.X.X",
".X.X.X.X.X.X.Xu u u Z Z Z Z Z C k k k k k B Z Z B k k k k k Q ~ ~ i.d.d.d.d.d.S.S.S.'.'.`.Q.Q.C.5 5 r .X.X.X.X.X.X.X.X.X.X.X.X.X",
".X.X.X.X.X.X.Xu u u Z Z Z Z Z B u u u u u k Z Z k u u B Z Z ^ @.@.@.@.@.k.k.k.Q.Q.Q.{.{.].Q.Q.V.    .X.X.X.X.X.X.X.X.X.X.X.X.X.X",
".X.X.X.X.X.X.Xu u u Z Z Z Z Z B u u u u u k Z Z k u u B Z Z ^ @.@.@.@.@.k.k.k.Q.Q.Q.{.{.].Q.Q.V.    .X.X.X.X.X.X.X.X.X.X.X.X.X.X",
".X.X.X.X.X.X.XO O O Z Z V f f i O O : u u p f f k B B g f f Y R R X.@.@.k.k.k.].].].t t K | | I     .X.X.X.X.X.X.X.X.X.X.X.X.X.X",
".X.X.X.X.X.X.X      Z Z B u u <     * u u u u u k Z Z f u u G U U ..@.@.k.k.k.{.{.{.    $ U U q     .X.X.X.X.X.X.X.X.X.X.X.X.X.X",
".X.X.X.X.X.X.X      Z Z B u u <     * u u u u u k Z Z f u u G U U ..@.@.k.k.k.{.{.{.    $ U U q     .X.X.X.X.X.X.X.X.X.X.X.X.X.X",
".X.X.X.X.X.X.X      f f a u u <     * u u 0.^.^.(.).).F.Z.Z.E U U n.J.J.u.u.u.{.{.{.}.}.W.] ] [ V.V.L . . .X.X.X.X.X.X.X.X.X.X.X",
".X.X.X.X.X.X.X      u u u u u <     * u u B.{.{.{.{.{._.Q.Q.| U U G.K.K.@.@.@.{.{.{. X X|.I.I.U.Q.Q.'     .X.X.X.X.X.X.X.X.X.X.X",
".X.X.X.X.X.X.X      u u u u u <     * u u B.{.{.{.{.{._.Q.Q.| U U G.K.K.@.@.@.{.{.{. X X|.I.I.U.Q.Q.'     .X.X.X.X.X.X.X.X.X.X.X",
".X.X.X.X.X.X.X      B B h O O o .X.X.XO O P A.A.~.{.{.[.].].K $ $ p.l.l.R R R {.{.{. X X|.I.I.U.Q.Q.'     .X.X.X.X.X.X.X.X.X.X.X",
".X.X.X.X.X.X.X      Z Z z     . .X.X.X    e @.@.P.{.{.{.{.{.t     w.k.k.U U U {.{.{. X X|.I.I.U.Q.Q.'     .X.X.X.X.X.X.X.X.X.X.X",
".X.X.X.X.X.X.X      Z Z z     . .X.X.X    e @.@.P.{.{.{.{.{.t     w.k.k.U U U {.{.{. X X|.I.I.U.Q.Q.'     .X.X.X.X.X.X.X.X.X.X.X",
".X.X.X.X.X.X.X      u u <     . .X.X.X          e @.@.T.R.R./     w.k.k.U U U {.{.{.{.{.].Q.Q.V.    .X.X.X.X.X.X.X.X.X.X.X.X.X.X",
".X.X.X.X.X.X.X      u u <     . .X.X.X          e @.@.T.R.R./     w.k.k.U U U {.{.{.{.{.].Q.Q.V.    .X.X.X.X.X.X.X.X.X.X.X.X.X.X",
".X.X.X.X.X.X.X      u u <     . .X.X.X          e @.@.T.R.R./     w.k.k.U U U {.{.{.{.{.].Q.Q.V.    .X.X.X.X.X.X.X.X.X.X.X.X.X.X",
".X.X.X.X.X.X.X.X.X.X    . .X.X.X.X.X.Xk.k.c.K.K.T                 w.k.k.U U U Q.Q.Q.Q.Q.V.    . .X.X.X.X.X.X.X.X.X.X.X.X.X.X.X.X",
".X.X.X.X.X.X.X.X.X.X    . .X.X.X.X.X.Xk.k.c.K.K.T                 w.k.k.U U U Q.Q.Q.Q.Q.V.    . .X.X.X.X.X.X.X.X.X.X.X.X.X.X.X.X",
".X.X.X.X.X.X.X.X.X.X    . .X.X.X.X.X.Xk.k.c.K.K.T                 w.k.k.U U U Q.Q.Q.Q.Q.V.    . .X.X.X.X.X.X.X.X.X.X.X.X.X.X.X.X",
".X.X.X.X.X.X.X.X.X.X.X.X.X.X.X.X.X.X.X.X.X.X    * u u B Z Z @     y.K.K.      u u u     . .X.X.X.X.X.X.X.X.X.X.X.X.X.X.X.X.X.X.X",
".X.X.X.X.X.X.X.X.X.X.X.X.X.X.X.X.X.X.X.X.X.X    * u u B Z Z @     y.K.K.      u u u     . .X.X.X.X.X.X.X.X.X.X.X.X.X.X.X.X.X.X.X",
".X.X.X.X.X.X.X.X.X.X.X.X.X.X.X.X.X.X.X.X.X.X    - f f l z z > $ $  .y.y.@ @ @ f f f @ @ + .X.X.X.X.X.X.X.X.X.X.X.X.X.X.X.X.X.X.X",
".X.X.X.X.X.X.X.X.X.X.X.X.X.X.X.X.X.X.X.X.X.X    2 Z Z @     q U U $     Z Z Z Z Z Z Z Z z     . .X.X.X.X.X.X.X.X.X.X.X.X.X.X.X.X",
".X.X.X.X.X.X.X.X.X.X.X.X.X.X.X.X.X.X.X.X.X.X    2 Z Z @     q U U $     Z Z Z Z Z Z Z Z z     . .X.X.X.X.X.X.X.X.X.X.X.X.X.X.X.X",
".X.X.X.X.X.X.X.X.X.X.X.X.X.X.X.X.X.X.X.X.X.X    2 Z Z @     0 J J 1 @ @ z z z Z Z Z Z Z b F F 3 .X.X.X.X.X.X.X.X.X.X.X.X.X.X.X.X",
".X.X.X.X.X.X.X.X.X.X.X.X.X.X.X.X.X.X.X.X.X.X    2 Z Z @     z Z Z Z Z Z       Z Z Z Z Z 3.k.k.w.    .X.X.X.X.X.X.X.X.X.X.X.X.X.X",
".X.X.X.X.X.X.X.X.X.X.X.X.X.X.X.X.X.X.X.X.X.X    2 Z Z @     z Z Z Z Z Z       Z Z Z Z Z 3.k.k.w.    .X.X.X.X.X.X.X.X.X.X.X.X.X.X",
".X.X.X.X.X.X.X.X.X.X.X.X.X.X.X.X.X.X.X.X.X.X@ @ d A A #     ) 9.9.9.9.9.      A A A A A 6.f.f.q.    .X.X.X.X.X.X.X.X.X.X.X.X.X.X",
".X.X.X.X.X.X.X.X.X.X.X.X.X.X.X.X.X.X.X    2 Z Z H U U $     }. X X X X X      U U U U U J Z Z z     .X.X.X.X.X.X.X.X.X.X.X.X.X.X",
".X.X.X.X.X.X.X.X.X.X.X.X.X.X.X.X.X.X.X    2 Z Z H U U $     }. X X X X X      U U U U U J Z Z z     .X.X.X.X.X.X.X.X.X.X.X.X.X.X",
".X.X.X.X.X.X.X.X.X.X.X.X.X.X.X.X.X.X.X    2 Z Z D ! ! %     Y.E.E.E.E.E.      ! ! ! ! ! W :.:.n     .X.X.X.X.X.X.X.X.X.X.X.X.X.X",
".X.X.X.X.X.X.X.X.X.X.X.X.X.X.X.X.X.X.X    2 Z Z :.7.7.,     ( _ _ _ _ _       7.7.7.7.7.7.7.7.N     .X.X.X.X.X.X.X.X.X.X.X.X.X.X",
".X.X.X.X.X.X.X.X.X.X.X.X.X.X.X.X.X.X.X    2 Z Z :.7.7.,     ( _ _ _ _ _       7.7.7.7.7.7.7.7.N     .X.X.X.X.X.X.X.X.X.X.X.X.X.X",
".X.X.X.X.X.X.X.X.X.X.X.X.X.X.X.X.X.X.X.X.X; 2 2 M 7.7.,     8 ` ` ` ` `       :.:.:.7.7.<.c c s .X.X.X.X.X.X.X.X.X.X.X.X.X.X.X.X",
".X.X.X.X.X.X.X.X.X.X.X.X.X.X.X.X.X.X.X.X.X.X    c 7.7.,     q U U U U U       Z Z Z 7.7.N     . .X.X.X.X.X.X.X.X.X.X.X.X.X.X.X.X",
".X.X.X.X.X.X.X.X.X.X.X.X.X.X.X.X.X.X.X.X.X.X    c 7.7.,     q U U U U U       Z Z Z 7.7.N     . .X.X.X.X.X.X.X.X.X.X.X.X.X.X.X.X",
".X.X.X.X.X.X.X.X.X.X.X.X.X.X.X.X.X.X.X.X.X.X.X.X.X, , X     O.D.D.!././.      @ @ @ , , = .X.X.X.X.X.X.X.X.X.X.X.X.X.X.X.X.X.X.X",
".X.X.X.X.X.X.X.X.X.X.X.X.X.X.X.X.X.X.X.X.X.X.X.X.X          V.Q.Q.].{.{.                . .X.X.X.X.X.X.X.X.X.X.X.X.X.X.X.X.X.X.X",
".X.X.X.X.X.X.X.X.X.X.X.X.X.X.X.X.X.X.X.X.X.X.X.X.X          V.Q.Q.].{.{.                . .X.X.X.X.X.X.X.X.X.X.X.X.X.X.X.X.X.X.X",
".X.X.X.X.X.X.X.X.X.X.X.X.X.X.X.X.X.X.X.X.X.X.X.X.X.X.X.     4 6 6 7 t t & & & & & & q q 9 . . .X.X.X.X.X.X.X.X.X.X.X.X.X.X.X.X.X",
".X.X.X.X.X.X.X.X.X.X.X.X.X.X.X.X.X.X.X.X.X.X.X.X.X.X.X.                 w w w w w w U U q     . .X.X.X.X.X.X.X.X.X.X.X.X.X.X.X.X",
".X.X.X.X.X.X.X.X.X.X.X.X.X.X.X.X.X.X.X.X.X.X.X.X.X.X.X.                 w w w w w w U U q     . .X.X.X.X.X.X.X.X.X.X.X.X.X.X.X.X",
".X.X.X.X.X.X.X.X.X.X.X.X.X.X.X.X.X.X.X.X.X.X.X.X.X.X.X.X.X.X.           w w w y y y U U q     . .X.X.X.X.X.X.X.X.X.X.X.X.X.X.X.X",
".X.X.X.X.X.X.X.X.X.X.X.X.X.X.X.X.X.X.X.X.X.X.X.X.X.X.X.X.X.X.           w w w U U U U U q     . .X.X.X.X.X.X.X.X.X.X.X.X.X.X.X.X",
".X.X.X.X.X.X.X.X.X.X.X.X.X.X.X.X.X.X.X.X.X.X.X.X.X.X.X.X.X.X.           w w w U U U U U q     . .X.X.X.X.X.X.X.X.X.X.X.X.X.X.X.X",
".X.X.X.X.X.X.X.X.X.X.X.X.X.X.X.X.X.X.X.X.X.X.X.X.X.X.X.X.X.X.X.X.X.X.X.X                . .X.X.X.X.X.X.X.X.X.X.X.X.X.X.X.X.X.X.X",
".X.X.X.X.X.X.X.X.X.X.X.X.X.X.X.X.X.X.X.X.X.X.X.X.X.X.X.X.X.X.X.X.X.X.X.X                . .X.X.X.X.X.X.X.X.X.X.X.X.X.X.X.X.X.X.X",
".X.X.X.X.X.X.X.X.X.X.X.X.X.X.X.X.X.X.X.X.X.X.X.X.X.X.X.X.X.X.X.X.X.X.X.X                . .X.X.X.X.X.X.X.X.X.X.X.X.X.X.X.X.X.X.X"
};
