/* XPM */
static char *result[] = {
/* columns rows colors chars-per-pixel */
"64 64 16 1 ",
"  c #000001",
". c #4A2920",
"X c #0D420D",
"o c #107B29",
"O c #734120",
"+ c #315273",
"@ c #A47B41",
"# c #41A429",
"$ c yellow",
"% c #DEAC52",
"& c #31529C",
"* c #00BAFF",
"= c #D5B48B",
"- c #FFE6BD",
"; c white",
": c None",
/* pixels */
":::::::::::::::::::::::   ooooooooooo   ::::::::::::::::::::::::",
":::::::::::::::::::::::   ooooooooooo   ::::::::::::::::::::::::",
":::::::::::::::::::::::   ooooooooooo   ::::::::::::::::::::::::",
"::::::::::::::::::::   ooo###########ooo   :::::::::::::::::::::",
"::::::::::::::::::::   ooo###########ooo   :::::::::::::::::::::",
"::::::::::::::::::::   ooo###########ooo   :::::::::::::::::::::",
"::::::::::::::::::  ooooooooooooooooooooooo   ::::::::::::::::::",
"::::::::::::::::::  ooooooooooooooooooooooo   ::::::::::::::::::",
":::::::::::::::   oo#######################ooo  ::::::::::::::::",
":::::::::::::::   oo#######################ooo  ::::::::::::::::",
":::::::::::::::   oo#######################ooo  ::::::::::::::::",
":::::::::::::::   ##@@@$$$$$$@@@@@$$$@@@@@@###  ::::::::::::::::",
":::::::::::::::   ##@@@$$$$$$@@@@@$$$@@@@@@###  ::::::::::::::::",
":::::::::::::::   ##@@@$$$$$$@@@@@$$$@@@@@@###  ::::::::::::::::",
"::::::::::::   ooo@@@@@$$$@@@$$$@@$$$$$$@@@@@@oo   :::::::::::::",
"::::::::::::   ooo@@@@@$$$@@@$$$@@$$$$$$@@@@@@oo   :::::::::::::",
"::::::::::::   ooo@@@@@$$$@@@$$$@@$$$$$$@@@@@@oo   :::::::::::::",
":::::::@@===OOOOOO%%$$$%%%$$$@@@$$%%%@@@$$$@@@OOOOO===@@@:::::::",
":::::::@@===OOOOOO%%$$$%%%$$$@@@$$%%%@@@$$$@@@OOOOO===@@@:::::::",
":::::::OO------@@@$$@@@$$$@@@@@@$$@@@===@@@$$$@@------OOO:::::::",
":::::::OO------@@@$$@@@$$$@@@@@@$$@@@===@@@$$$@@------OOO:::::::",
":::::::OO------@@@$$@@@$$$@@@@@@$$@@@===@@@$$$@@------OOO:::::::",
":::::::::OOO===OOO@@%%%$$$$$$%%%OO===---@@@%%%@@===OOO::::::::::",
":::::::::OOO===OOO@@%%%$$$$$$%%%OO===---@@@%%%@@===OOO::::::::::",
":::::::::OOO===OOO@@%%%$$$$$$%%%OO===---@@@%%%@@===OOO::::::::::",
"::::::::::::***$$$OO%%%%%%@@@OOO==------===OOO$$***:::::::::::::",
"::::::::::::***$$$OO%%%%%%@@@OOO==------===OOO$$***:::::::::::::",
"::::::::::::***$$$OO%%%%%%@@@OOO==------===OOO$$***:::::::::::::",
"::::::::::::   $$$@@   @@@OOO===--===OOO   @@@$$   :::::::::::::",
"::::::::::::   $$$@@   @@@OOO===--===OOO   @@@$$   :::::::::::::",
"::::::::::::   $$$@@   @@@OOO===--===OOO   @@@$$   :::::::::::::",
"::::::::::::   %%%OO;;;&&&OOO-----OOO&&&;;;OOO%%   :::::::::::::",
"::::::::::::   %%%OO;;;&&&OOO-----OOO&&&;;;OOO%%   :::::::::::::",
":::::::::::::::     ---&&&;;;-----;;;&&&---     ::::::::::::::::",
":::::::::::::::     ---&&&;;;-----;;;&&&---     ::::::::::::::::",
":::::::::::::::     ---&&&;;;-----;;;&&&---     ::::::::::::::::",
"::::::::::::::::::  @@@-----------------@@@   ::::::::::::::::::",
"::::::::::::::::::  @@@-----------------@@@   ::::::::::::::::::",
"::::::::::::::::::  @@@-----------------@@@   ::::::::::::::::::",
":::::::::::::::   ooOOOOOO===========OOOOOOooo  ::::::::::::::::",
":::::::::::::::   ooOOOOOO===========OOOOOOooo  ::::::::::::::::",
":::::::::::::::   ooOOOOOO===========OOOOOOooo  ::::::::::::::::",
"::::::::::::   +++;;XXXoooooooooooooooooXXX;;;..   :::::::::::::",
"::::::::::::   +++;;XXXoooooooooooooooooXXX;;;..   :::::::::::::",
"::::::::::::   +++;;XXXoooooooooooooooooXXX;;;..   :::::::::::::",
":::::::::   OOOOOO  OOOoooooooooooooooooOOO   OOOOO   ::::::::::",
":::::::::   OOOOOO  OOOoooooooooooooooooOOO   OOOOO   ::::::::::",
":::::::::   ===---XX###OOOOOO$$$$$OOOOOO###XXX--===   ::::::::::",
":::::::::   ===---XX###OOOOOO$$$$$OOOOOO###XXX--===   ::::::::::",
":::::::::   ===---XX###OOOOOO$$$$$OOOOOO###XXX--===   ::::::::::",
"::::::::::::        ooo###ooooooooooo###ooo        :::::::::::::",
"::::::::::::        ooo###ooooooooooo###ooo        :::::::::::::",
"::::::::::::        ooo###ooooooooooo###ooo        :::::::::::::",
"::::::::::::::::::     ooo###########ooo      ::::::::::::::::::",
"::::::::::::::::::     ooo###########ooo      ::::::::::::::::::",
"::::::::::::::::::     ooo###########ooo      ::::::::::::::::::",
":::::::::::::::   OO...                 ...OOO  ::::::::::::::::",
":::::::::::::::   OO...                 ...OOO  ::::::::::::::::",
":::::::::::::::   OOOOO...   :::::   ...OOOOOO  ::::::::::::::::",
":::::::::::::::   OOOOO...   :::::   ...OOOOOO  ::::::::::::::::",
":::::::::::::::   OOOOO...   :::::   ...OOOOOO  ::::::::::::::::",
"::::::::::::::::::        :::::::::::         ::::::::::::::::::",
"::::::::::::::::::        :::::::::::         ::::::::::::::::::",
"::::::::::::::::::        :::::::::::         ::::::::::::::::::"
};
