/* XPM */
static char *_c49cd5c450243b7e42916f2c362c843RWPEQJAPI5jQKChJ[] = {
/* columns rows colors chars-per-pixel */
"64 64 239 2 ",
"   c None",
".  c #000000",
"X  c #0B0200",
"o  c #000C02",
"O  c #050A07",
"+  c #1A0000",
"@  c #120201",
"#  c #031504",
"$  c #011901",
"%  c #1C1607",
"&  c #240103",
"*  c #380302",
"=  c #241201",
"-  c #291A02",
";  c #371C01",
":  c #291311",
">  c #012500",
",  c #003401",
"<  c #003C00",
"1  c #1A3204",
"2  c #262604",
"3  c #392601",
"4  c #263702",
"5  c #342718",
"6  c #322B0D",
"7  c #220725",
"8  c #1F0024",
"9  c #430000",
"0  c #501200",
"q  c #7B0000",
"w  c #730100",
"e  c #6D0100",
"r  c #4A2D01",
"t  c #472B00",
"y  c #4B3300",
"u  c #493702",
"i  c #543701",
"p  c #543C17",
"a  c #562900",
"s  c #693700",
"d  c #6D300A",
"f  c #503E2E",
"g  c #004600",
"h  c #015C00",
"j  c #015400",
"k  c #3B5000",
"l  c #006300",
"z  c #006D00",
"x  c #007300",
"c  c #007900",
"v  c #087202",
"b  c #157208",
"n  c #0D6C10",
"m  c #296C00",
"M  c #337A00",
"N  c #307009",
"B  c #1B5629",
"V  c #144C21",
"C  c #066E31",
"Z  c #265133",
"A  c #554B0B",
"S  c #684802",
"D  c #695404",
"F  c #694C13",
"G  c #436402",
"H  c #517F0D",
"J  c #737701",
"K  c #56442D",
"L  c #765B3A",
"P  c #6C5233",
"I  c #706837",
"U  c #496D23",
"Y  c #08007B",
"T  c #250078",
"R  c #4C3252",
"E  c #473678",
"W  c #431150",
"Q  c #336E48",
"!  c #306771",
"~  c #705A49",
"^  c #5F5F68",
"/  c #962C00",
"(  c #AD2800",
")  c #CF1300",
"_  c #E80100",
"`  c #FE0000",
"'  c #F60300",
"]  c #E81400",
"[  c #8B5306",
"{  c #88510E",
"}  c #847B05",
"|  c #95670C",
" . c #A97215",
".. c #925E24",
"X. c #87673D",
"o. c #936738",
"O. c #96713F",
"+. c #A47035",
"@. c #DB7D15",
"#. c #FF5A1E",
"$. c #876643",
"%. c #987348",
"&. c #9C7B5D",
"*. c #977555",
"=. c #8B7252",
"-. c #A47E53",
";. c #009500",
":. c #039B00",
">. c #088805",
",. c #21840C",
"<. c #01BC00",
"1. c #00B700",
"2. c #0FB102",
"3. c #2EAF02",
"4. c #138E3A",
"5. c #279138",
"6. c #4F9000",
"7. c #7D9D07",
"8. c #60A11C",
"9. c #00CF00",
"0. c #00C400",
"q. c #00D200",
"w. c #00DB01",
"e. c #19D100",
"r. c #1DD30A",
"t. c #12CC0E",
"y. c #00E407",
"u. c #00D123",
"i. c #31994B",
"p. c #2F9D47",
"a. c #31A34C",
"s. c #33AF54",
"d. c #00B965",
"f. c #3DBC63",
"g. c #389C69",
"h. c #548C4A",
"j. c #48AF59",
"k. c #45BE61",
"l. c #49AD63",
"z. c #72864C",
"x. c #36C74A",
"c. c #3EC465",
"v. c #42C567",
"b. c #8A8703",
"n. c #999804",
"m. c #928E00",
"M. c #90AC00",
"N. c #A6BD00",
"B. c #A8AB06",
"V. c #A69314",
"C. c #D98A11",
"Z. c #E48815",
"A. c #FF9B1A",
"S. c #FE9818",
"D. c #F08816",
"F. c #FFA219",
"G. c #FEB915",
"H. c #E3B311",
"J. c #C68426",
"K. c #E99A20",
"L. c #BBDD1F",
"P. c #D5DA00",
"I. c #D5D900",
"U. c #CFC610",
"Y. c #FAD80E",
"T. c #FCC712",
"R. c #EECC10",
"E. c #DDE302",
"W. c #D3F200",
"Q. c #D9F800",
"!. c #E6EA03",
"~. c #FBE809",
"^. c #F6FD00",
"/. c #FBFF00",
"(. c #FBF206",
"). c #E7F002",
"_. c #C9E73E",
"`. c #8E8254",
"'. c #958351",
"]. c #A68457",
"[. c #AD8669",
"{. c #A98666",
"}. c #B28D6C",
"|. c #B48D65",
" X c #BA926B",
".X c #BE9672",
"XX c #C39972",
"oX c #CA9E75",
"OX c #C3986F",
"+X c #CEA175",
"@X c #DBAA79",
"#X c #D7B174",
"$X c #E6B37D",
"%X c #E4AF7D",
"&X c #E4C87C",
"*X c #010086",
"=X c #14008B",
"-X c #2A14A0",
";X c #6710A6",
":X c #44298C",
">X c #266585",
",X c #65488A",
"<X c #63409D",
"1X c #4A5298",
"2X c #5B01FF",
"3X c #4E08FD",
"4X c #6100FF",
"5X c #503EE7",
"6X c #497FD5",
"7X c #5B69E4",
"8X c #926E8C",
"9X c #967397",
"0X c #9364ED",
"qX c #2EB68D",
"wX c #4E9EAC",
"eX c #528482",
"rX c #96908D",
"tX c #908CB2",
"yX c #AB9F9D",
"uX c #E9B584",
"iX c #F2BB85",
"pX c #EAB9A6",
"aX c #CCAC9D",
"sX c #FFC485",
"dX c #FEC68C",
"fX c #FFC98D",
"gX c #FFCD87",
"hX c #FFCC91",
"jX c #FDC898",
"kX c #FFD495",
"lX c #FFD488",
"zX c #FDD5B0",
"xX c #FFE1B8",
"cX c #D2CFD2",
"vX c #FCE7D6",
"bX c #FFFFFF",
"nX c #FFFBF6",
"mX c #EAE8E6",
"MX c #E4D8D6",
/* pixels */
"                                                                                                                                ",
"                                                                                                                                ",
"                                                                                                                                ",
"                                                                                                                                ",
"                                                    > . g c c c c c c c c c z . $                                               ",
"                                                    . . , x z x x z z x z x h . .                                               ",
"                                                    g , l :.;.;.;.;.;.;.;.:.>., g                                               ",
"                                                . o z z :.q.q.q.q.q.q.q.q.q.<.z c , . $                                         ",
"                                                . . l h ;.q.q.q.q.q.q.q.9.q.<.h z > . .                                         ",
"                                          # . < l h 1.<.<.q.q.9.q.q.q.9.9.q.9.<.<.c h h . .                                     ",
"                                          . . < z z <.w.q.q.9.q.q.q.q.9.q.q.q.q.q.>.l l . .                                     ",
"                                          g , l ;.;.e.e.e.e.e.e.e.e.e.e.e.e.e.e.e.:.;.>.< <                                     ",
"                                      . . z z ;.q.q.q.q.q.q.q.q.9.q.q.q.q.q.9.q.9.9.w.<.x x , . .                               ",
"                                      . . l l ;.q.q.q.q.9.9.9.9.9.9.9.9.9.9.9.9.9.9.w.<.z z , . .                               ",
"                                      . . :.0.3.H 6.P.W.W.W.W.W.W.W.W.W.W.W.W.Q.W.7.M 6.<.<.j . $                               ",
"                                      . . 9.y.2.. & !././././././././././././././.J . M w.w.h . o                               ",
"                                      < < 3.2.6.n.n.)./.^.^.^.^.^.^.^.^.^.^.^.^./.B.m.M.3.3.b , <                               ",
"                                o . < x x A & n./././././.^./.^./.^./.^.^./.^.^./././.I.* 9 m c l . o                           ",
"                                . . < z z k o m./.^.^.^.^.^./.^.^./.^././.^.^.^./.^./.I.& * m c h . .                           ",
"                      p 3 L }.}.P r A k k C.Z.H.^.^.Y.G.Y./.^./././.^.^.Y.G.H.n.n.!./.).P.P.J 4 A p p -..X*.t y                 ",
"                      p t L }..Xp . ; t t D.S.G././.G.#.G./.^./.^.^./.^.F.S.@.. . )././././.} * t . = &..X*.y i                 ",
"                      p 2 $.+X+X].-.%.u t H.G.R.I.I.T.G.Y.^./.^./.^.^./.H.C.J.L X.U.P.E.^.^.} & P ].-.OX@X|.3 y                 ",
"                      p X %.fXfXfXhX%X- t !./.P.. r !./.^.^.^./.^.^./.^.b.. L }.[.P . V././.J . ].fXfXdXhX@X- u                 ",
"                      F X -.fXfXhXhXuX; t !./.E.o 3 E./.^.^./.^.^./././.b.o L {.{.P . B././.} o -.fXfXfXkX@X; i                 ",
"                            %.%. XoX{.y i b.m.V.D.Z.(.^.^././.T.G.H.m.m.].*.}.dXuXo..  .T.G.| = X.oXOX-.%.%.                    ",
"                            - & &.}.*.+ & 9 . [ F.F.(.^./.(./.G.A.Z.o + &.{.XXjXfX$..  .A.A.d . P }.].K . 3                     ",
"                            p y =.&.'.n.n.D - | A.A.Y.~.!.I.P.K.Z.@.~ ~ .XXX@XhXdX*.K O.C.Z.V.n.'.%.*.P y                       ",
"                                i . n././.m.. | F.A.S.A.@.. o - . P [.[.sXhXdXdXfX.X}.&.. # )./.P.. u                           ",
"                                A * n.^.^.b.. | F.S.A.F.C.u u i t L [.[.uXfXfXdXfXXX[.*.r i !./.P.* A                           ",
"                                3 . m./.^.b.+ F o..... .{ u u *.*.|.iXuX+XXX X%.*.~ ~ P r r !./.I.. 3                           ",
"                                2 . m././.b.* - . . . 2 2 i u ].{.oXhXdX.X[.*.. % . . . u y )./.P.. 2                           ",
"                                2 . } ~.~.| X ^ yXyX^ W R i u  X+X@XfXdX[.=.=.R R rXyXrXt r R.~.U.. 2                           ",
"                                = . { A.A.... rXbXbXtX*XE y 3 uXjXdXfXdX$.. R *X-XmXbXMX- t K.A.@.. =                           ",
"                                - . [ F.A.... rXbXnXtX*XE 3 * uXdXdXdXdXX.. R =X-XmXbXcX; t K.F.Z.O =                           ",
"                                      [ [ p . &.zXzX9X*XtXmXmXjXsXdXdXfXcXmXcX*X:XjXzXaX. @ { [ {                               ",
"                                      . . O . $.gXsX8XY tXbXbXzXsXhXsXfXnXbXmXY *X$XlX#X. . . . .                               ",
"                                      t ; : . ~ @X@XrX&.aXvXvXjXsXdXdXdXvXvXMX8X9X+X$X|.. . t 3                                 ",
"                                          . O 3 u i uXjXdXsXdXdXdXdXdXdXsX$XsXlXfXo.; i . .                                     ",
"                                          O O t S F uXjXdXdXfXfXdXdXfXfXfXfXfXfXdX%.a p . .                                     ",
"                                      o O 2.<.3.d F o.%.-.XXXXXXOXXXOXOX.XoX|.O.%.L d 8.<.<.h . >                               ",
"                                      . . 1.y.3.s S s a L -.[.[.[.[.[.[.[.}.&.a i D s 6.y.w.g . .                               ",
"                                    U ,.,.t.q.f.<X<X^ G I &.`.`.`.`.`.`.`.`.=.G A ,X;XeX9.9.5.,.N                               ",
"                                . . c w.w.u.w.qX4X2X>Xc C v x v z x z x v x x x n 5X4X6Xw.9.w.y.<.O O                           ",
"                                2 & b r.e.u.q.qX4X3X>Xc C b b b b b n b b b b x n 5X4X6X9.9.t.r.2.& 2                           ",
"                            O . XXuX#XsX&Xz.n Q ,X^ Q x n v v M M M M M b v b v n ^ ,X^ C C #X&XdX@X@X~ . 5                     ",
"                            . . sXkXjXfXdX[ . * d s k n x c x h j j j j x x x x v A d a . . iXhXjXjXkXL . 5                     ",
"                            . . OX#XuXdXkX<X=X1Xh.h.U G G G k N.N.N.N.N.J k G G G h.h.^ -X-XpXgXuX@X%XP . 5                     ",
"                            . . &.{.XXhXkX0X3X7Xx.c.I s F S s !././././.m.0 D S S l.x.wX4X2XpXgXuX{.{.K . :                     ",
"                            . . &.[.oXhXhX0X3X7Xs.f.U s D S A !./.^./.^.m.0 D S S j.x.wX2X2XpXlXuX{.{.K . :                     ",
"                                f f K L L E T ! c.f.j.j.h.N b E./.^.^./.b.j h.j.j.f.c.g.T T ~ L L f K                           ",
"                                o . . . . o . b v.v.v.v.s.z l E././././.7.j 5.v.c.c.v.a.. . . . . . .                           ",
"                                  : : 5 5 7 8 Z i.i.a.a.p.5.4._._._._._.j.4.p.a.p.i.a.Q 8 8 5 5 5 % :                           ",
"                                          . o . . . h l 5.f.v.d.d.d.d.d.f.v.s.l z . . . . .                                     ",
"                                          X @ O o # n z 4.f.f.k.k.k.k.k.f.f.s.z v , O $ @ @                                     ",
"                                      . . ) ' ) 6 i 4 , V B B B B B Z B B B V , , i 4 / _ _ e . +                               ",
"                                      . . _ ` ] < 4 . . . . . . . . . . . . . . . 6 , / ` ` w . +                               ",
"                                      . . _ ` ] ( ( d > - # o # # # # # # O % 2 3 ( ( ) ' ` w . +                               ",
"                                      . . _ ` ` ` ` / g a . .           O O - i i ] ` ` ` ` w . +                               ",
"                                      . . _ ` ' ` ' / 1 a . .           X . - y y ] ` ' ` ' w . +                               ",
"                                          w q q q q 0 # =                     % = w q q q q                                     ",
"                                          . . o . . . . o                     . . . . o . .                                     ",
"                                            9 9 9 9 & .                       X @ * 9 9 9 9                                     ",
"                                                                                                                                ",
"                                                                                                                                "
};
