/* XPM */
static char *result[] = {
/* columns rows colors chars-per-pixel */
"64 64 15 1 ",
"  c #000001",
". c #4A2920",
"X c #0D420D",
"o c #107B29",
"O c #734120",
"+ c #315273",
"@ c #A47B41",
"# c #41A429",
"$ c yellow",
"% c #DEAC52",
"& c #00BAFF",
"* c #D5B48B",
"= c #FFE6BD",
"- c white",
"; c None",
/* pixels */
";;;;;;;;;;;;;;;;;;;;;;;;;;OOO@@@@@@@@@OOO;;;;;;;;;;;;;;;;;;;;;;;",
";;;;;;;;;;;;;;;;;;;;;;;;;;OOO@@@@@@@@@OOO;;;;;;;;;;;;;;;;;;;;;;;",
";;;;;;;;;;;;;;;;;;;;;;;;;;OOO@@@@@@@@@OOO;;;;;;;;;;;;;;;;;;;;;;;",
";;;;;;;;;;;;;;;;;;;;;;;   %%%$$$$$$@@@@@@$$$@@@;;;;;;;;;;;;;;;;;",
";;;;;;;;;;;;;;;;;;;;;;;   %%%$$$$$$@@@@@@$$$@@@;;;;;;;;;;;;;;;;;",
";;;;;;;;;;;;;;;;;;;;;;;   %%%$$$$$$@@@@@@$$$@@@;;;;;;;;;;;;;;;;;",
";;;;;;;;;;;;;;;;;;;;   ##################$$$@@@@@@;;;;;;;;;;;;;;",
";;;;;;;;;;;;;;;;;;;;   ##################$$$@@@@@@;;;;;;;;;;;;;;",
";;;;;;;;;;;;;;;;;;;;   ##################$$$@@@@@@;;;;;;;;;;;;;;",
";;;;;;;;;;;;;;;;    ###XXXXXXXXXXXXXXXXXX###%%%$$$OOO;;;;;;;;;;;",
";;;;;;;;;;;;;;;;    ###XXXXXXXXXXXXXXXXXX###%%%$$$OOO;;;;;;;;;;;",
";;;;;;;;;;;;;;;;    ###XXXXXXXXXXXXXXXXXX###%%%$$$OOO;;;;;;;;;;;",
";;;;;;;;;;;;;   ooooXXX##################XXXooo   @@@;;;;;;;;;;;",
";;;;;;;;;;;;;   ooooXXX##################XXXooo   @@@;;;;;;;;;;;",
";;;;;;;;;;;;;   ooooXXX##################XXXooo   @@@;;;;;;;;;;;",
";;;;;;;;;;;;;   XXXX########################XXX   ;;;;;;;;;;;;;;",
";;;;;;;;;;;;;   XXXX########################XXX   ;;;;;;;;;;;;;;",
";;;;;;;;;;;;;   XXXX########################XXX   ;;;;;;;;;;;;;;",
";;;;;;;@@@***XXXooooXXX##################XXXoooXXX***@@@;;;;;;;;",
";;;;;;;@@@***XXXooooXXX##################XXXoooXXX***@@@;;;;;;;;",
";;;;;;;@@@***XXXooooXXX##################XXXoooXXX***@@@;;;;;;;;",
";;;;OOO======XXXooooooo##################ooooooXXX======OOO;;;;;",
";;;;OOO======XXXooooooo##################ooooooXXX======OOO;;;;;",
";;;;OOO======XXXooooooo##################ooooooXXX======OOO;;;;;",
";;;;;;;OOO@@@XXXooooXXXooo############oooXXXoooXXX@@@OOO;;;;;;;;",
";;;;;;;OOO@@@XXXooooXXXooo############oooXXXoooXXX@@@OOO;;;;;;;;",
";;;;;;;OOO@@@XXXooooXXXooo############oooXXXoooXXX@@@OOO;;;;;;;;",
";;;;;;;;;;OOO&&&XXXX   oooooo######oooooo   XXX&&&OOO;;;;;;;;;;;",
";;;;;;;;;;OOO&&&XXXX   oooooo######oooooo   XXX&&&OOO;;;;;;;;;;;",
";;;;;;;;;;OOO&&&XXXX   oooooo######oooooo   XXX&&&OOO;;;;;;;;;;;",
";;;;;;;;;;   $$$OOOO   oooooooooooooooooo   OOO$$$   ;;;;;;;;;;;",
";;;;;;;;;;   $$$OOOO   oooooooooooooooooo   OOO$$$   ;;;;;;;;;;;",
";;;;;;;;;;   $$$OOOO   oooooooooooooooooo   OOO$$$   ;;;;;;;;;;;",
";;;;;;;;;;   $$$OOOO   oooooooooooooooooo   OOO$$$   ;;;;;;;;;;;",
";;;;;;;;;;;;;   @@@@   XXXooooooooooooXXX   @@@   ;;;;;;;;;;;;;;",
";;;;;;;;;;;;;   @@@@   XXXooooooooooooXXX   @@@   ;;;;;;;;;;;;;;",
";;;;;;;;;;;;;   @@@@   XXXooooooooooooXXX   @@@   ;;;;;;;;;;;;;;",
";;;;;;;;;;;;;;;;          oooooooooooo         ;;;;;;;;;;;;;;;;;",
";;;;;;;;;;;;;;;;          oooooooooooo         ;;;;;;;;;;;;;;;;;",
";;;;;;;;;;;;;;;;          oooooooooooo         ;;;;;;;;;;;;;;;;;",
";;;;;;;;;;;;;   ooooXXX   XXXooooooXXX   XXXooo   ;;;;;;;;;;;;;;",
";;;;;;;;;;;;;   ooooXXX   XXXooooooXXX   XXXooo   ;;;;;;;;;;;;;;",
";;;;;;;;;;;;;   ooooXXX   XXXooooooXXX   XXXooo   ;;;;;;;;;;;;;;",
";;;;;;;;;;   ...----XXXooo   oooooo   oooXXX---+++   ;;;;;;;;;;;",
";;;;;;;;;;   ...----XXXooo   oooooo   oooXXX---+++   ;;;;;;;;;;;",
";;;;;;;;;;   ...----XXXooo   oooooo   oooXXX---+++   ;;;;;;;;;;;",
";;;;;;;   OOOOOO    OOOooo   XXXXXX   oooOOO   OOOOOO   ;;;;;;;;",
";;;;;;;   OOOOOO    OOOooo   XXXXXX   oooOOO   OOOOOO   ;;;;;;;;",
";;;;;;;   OOOOOO    OOOooo   XXXXXX   oooOOO   OOOOOO   ;;;;;;;;",
";;;;;;;   ===***XXXX###OOOOOO      OOOOOO###XXX***===   ;;;;;;;;",
";;;;;;;   ===***XXXX###OOOOOO      OOOOOO###XXX***===   ;;;;;;;;",
";;;;;;;   ===***XXXX###OOOOOO      OOOOOO###XXX***===   ;;;;;;;;",
";;;;;;;;;;          ########################         ;;;;;;;;;;;",
";;;;;;;;;;          ########################         ;;;;;;;;;;;",
";;;;;;;;;;          ########################         ;;;;;;;;;;;",
";;;;;;;;;;;;;   ....   ooo############ooo   ...   ;;;;;;;;;;;;;;",
";;;;;;;;;;;;;   ....   ooo############ooo   ...   ;;;;;;;;;;;;;;",
";;;;;;;;;;;;;   ....   ooo############ooo   ...   ;;;;;;;;;;;;;;",
";;;;;;;;;;;;;;;;    ...OOOOOO      OOOOOO...   ;;;;;;;;;;;;;;;;;",
";;;;;;;;;;;;;;;;    ...OOOOOO      OOOOOO...   ;;;;;;;;;;;;;;;;;",
";;;;;;;;;;;;;;;;    ...OOOOOO      OOOOOO...   ;;;;;;;;;;;;;;;;;",
";;;;;;;;;;;;;;;;;;;;         ;;;;;;         ;;;;;;;;;;;;;;;;;;;;",
";;;;;;;;;;;;;;;;;;;;         ;;;;;;         ;;;;;;;;;;;;;;;;;;;;",
";;;;;;;;;;;;;;;;;;;;         ;;;;;;         ;;;;;;;;;;;;;;;;;;;;"
};
