/* XPM */
static char *_b0ee343f33046dac530b19bf14568071HJZ6SX2tBtiBq7q[] = {
/* columns rows colors chars-per-pixel */
"64 64 211 2 ",
"   c #19140F",
".  c #0B0F10",
"X  c #100F12",
"o  c #161618",
"O  c #112300",
"+  c #23231B",
"@  c #28251E",
"#  c #242323",
"$  c #2A2623",
"%  c #262A27",
"&  c #2B2A25",
"*  c #2C2D2C",
"=  c #312E2D",
"-  c #2E332C",
";  c #37372B",
":  c #32322D",
">  c #353A2D",
",  c #2C2E33",
"<  c #312F31",
"1  c #2E3132",
"2  c #343433",
"3  c #393634",
"4  c #353936",
"5  c #3B3A35",
"6  c #353739",
"7  c #393738",
"8  c #363A3B",
"9  c #3C3C3B",
"0  c #413D37",
"q  c #413E3C",
"w  c #364427",
"e  c #35422A",
"r  c #3C452E",
"t  c #3C4335",
"y  c #3E4A34",
"u  c #3E423C",
"i  c #424D33",
"p  c #43433D",
"a  c #49463E",
"s  c #444A3C",
"d  c #484D3D",
"f  c #445235",
"g  c #46523B",
"h  c #49543C",
"j  c #49583C",
"k  c #3C3E41",
"l  c #403F41",
"z  c #3E4342",
"x  c #444543",
"c  c #494743",
"v  c #454A44",
"b  c #4B4A45",
"n  c #464649",
"m  c #454A4A",
"M  c #4C4C4A",
"N  c #504E4B",
"B  c #475040",
"V  c #4B5344",
"C  c #4D5B43",
"Z  c #4D514D",
"A  c #4F5A4C",
"S  c #515746",
"D  c #52534E",
"F  c #545C4C",
"G  c #4D4E50",
"H  c #514F51",
"J  c #4E5251",
"K  c #545452",
"L  c #585654",
"P  c #555954",
"I  c #5A5A55",
"U  c #5A5758",
"Y  c #565D5A",
"T  c #5C5D5A",
"R  c #605E5C",
"E  c #536244",
"W  c #586946",
"Q  c #56634C",
"!  c #59654C",
"~  c #5B694D",
"^  c #5A754A",
"/  c #566253",
"(  c #5B6454",
")  c #576951",
"_  c #5C6C54",
"`  c #56615D",
"'  c #5D625C",
"]  c #5D6C5C",
"[  c #5E7256",
"{  c #5D725C",
"}  c #61774B",
"|  c #606B55",
" . c #61625E",
".. c #66695B",
"X. c #636B5C",
"o. c #627356",
"O. c #63735D",
"+. c #68735E",
"@. c #657B59",
"#. c #575E61",
"$. c #5C5E62",
"%. c #5D5D6D",
"&. c #615F62",
"*. c #576264",
"=. c #5D6463",
"-. c #5E6A65",
";. c #5E646A",
":. c #5E6B6A",
">. c #5F6470",
",. c #636563",
"<. c #636A65",
"1. c #696B65",
"2. c #63656B",
"3. c #6A6769",
"4. c #646C6B",
"5. c #6A6C6C",
"6. c #647364",
"7. c #6A7464",
"8. c #677A64",
"9. c #6C7B63",
"0. c #66726D",
"q. c #6A736D",
"w. c #67796D",
"e. c #6B7A6D",
"r. c #737366",
"t. c #787667",
"y. c #707C62",
"u. c #72736D",
"i. c #737B6C",
"p. c #7C7B6E",
"a. c #636372",
"s. c #656C72",
"d. c #6A6D73",
"f. c #6D6E79",
"g. c #716F7C",
"h. c #667271",
"j. c #6C7473",
"k. c #6E7A74",
"l. c #6E747A",
"z. c #6E797A",
"x. c #727574",
"c. c #737A75",
"v. c #7C7E76",
"b. c #72757C",
"n. c #747B7B",
"m. c #7A7E7B",
"M. c #6B835E",
"N. c #74865E",
"B. c #6C8063",
"V. c #6F826F",
"C. c #73846B",
"Z. c #7A846E",
"A. c #778868",
"S. c #748273",
"D. c #7C8175",
"F. c #7E8A75",
"G. c #76817B",
"H. c #7B827D",
"J. c #7E897A",
"K. c #84946F",
"L. c #838375",
"P. c #82847C",
"I. c #858878",
"U. c #838B7C",
"Y. c #8A8A7C",
"T. c #918E7F",
"R. c #899677",
"E. c #8B947D",
"W. c #919B7D",
"Q. c #6F7080",
"!. c #757681",
"~. c #787781",
"^. c #757B81",
"/. c #797E84",
"(. c #7C7E89",
"). c #768181",
"_. c #7C8383",
"`. c #7F838A",
"'. c #838683",
"]. c #848A84",
"[. c #8B8D84",
"{. c #83868A",
"}. c #858B89",
"|. c #8B8E8A",
" X c #908E80",
".X c #908F8A",
"XX c #869086",
"oX c #8C9384",
"OX c #8D9982",
"+X c #8D928C",
"@X c #939485",
"#X c #929A84",
"$X c #9B9B86",
"%X c #93958B",
"&X c #98978C",
"*X c #96998C",
"=X c #9A9B8C",
"-X c #8B8D91",
";X c #8E9391",
":X c #949591",
">X c #989794",
",X c #969993",
"<X c #9B9C93",
"1X c #9D9E98",
"2X c #A09F92",
"3X c #9AA289",
"4X c #9FA094",
"5X c #A3A28D",
"6X c #A3A295",
"7X c #ABA894",
"8X c #A2A39A",
/* pixels */
"x m z z k 8 7 6 : x x c v p v x v p V Z c x 0 = # # < < = : q 3 q N K K N M M c t s p p u > - * 6 c z 9 7 4 8 9 k 8 8 k 8 8 u m ",
"M ' <.q.r.t.p.p.i.K q A / / Q ( ~ _ I x m M R 1.p.L. XY.P.u.@ N |.%X%X%X&X&X%XY.j E D.I.I.I.p.D.Y.@X'.z M k.c.v.D.H.P.P.P.H.<.z ",
":X2X6X6X6X6X5X6X<XT 1.#XE.W.R.R.N.R.D.5 x.<X2X2X>X>X:X.X|.n.7 1.%X{.|.'.c._.H.G.B 7.,X#X*X4X$X+X,X<X+Xx c.<X#X+X+X:X8X8X4X1X}.m ",
":X:X-X-X{.(.i.S.n.v 7.S.8.8.8.{ ^ [ j.D c.>X-X{.(.(.~.a.5.5.a q.|.{._.j.d.n.q.4.p =.S.H.H.n.e.6.0.n.h.k 7.M.@.c._._.n._.G.k.4.M ",
"-Xl.l.l.l.f.j.-.<.M 7.8.] 6.6.{ 6.8.q.p 5.n.m.(.(.Q.a.a.3.5.d 5.^.h.:.s.l.j.-.4.b 5.q.<.q.h.h.h.-.4.<.x 6.@.6.n.n.l.l.4.:.h.` m ",
"`.s.^.~.!.~.b.s.5.M  .6.w.S.C.F.e.k.q.p 1.k.l.~.g.f.a.a.d.5.p ,.h.:.d.f.s.4.] <.M 1.4.` s.k./.b.-.:.5.x 5.4.4.k.l.l.l.h.h.h.T M ",
"_.4.l.~.!.!.l.d.5.b ( 0.q.c.e.c.x.x.<.N  .q.5.d.a.f.3.3.3.,.p T h.s.f.f.b.l.s.5.b Y 4.*.:.j.b.l.4.4.1.q Y h.:.;.>.;.>.s.q.d.T J ",
"6.=.-.2.3.5.3.3.,.c P 5.1.X. . . .R R D N  .R R R R R R U N x m Y ' T U T T T I x v P T ,.'  . . .,.I l P :.=.*.$.#.T $.R Y M n ",
"K Z m p 0 x c 0 p : c H M b b b L L N M 7 3 7 l c N K M m z x z 9 8 2 - 2 4 - 4 6 8 8 4 1 * 2 9 2 , , 1 , 2 8 9 9 n M m M m M K ",
"*X%X+XJ.1.5 M r.m.L.P.'.'.[.'.m.L R 5.r.r.r.L.[..Xb.M T '.%X%X*X*X*X*X+X' , ' N.].U.F.P.P.D.<.7 <.m.H.P.m.L.m.H.'.2.z {.|.+X%X%X",
";X;X+X+Xx.2 5.8X8X6X7X7X7X7X6X.XK P.<X*X&X2X2X2X>X'.N |.:X_.).).).^.H.H.5.2 D.A.J._.+X%X%X,Xm.M |.%X+X+X%X&X,X+X+Xk.x |.;X;X;X;X",
"b.n.z.j.,.: 1.}.}.m.n._.].}._.5.M n.k.s.!.(.{.}.n.3.K }.h.:.s.l.l.h.h.h.=.u n.h.z.n.z.n.H.k.=.K B.B._.b.z.~.z.h.4.*.c {.).`./.l.",
"j.s.s.s.,.p 1.k.k.x.k.n.q.j.4.Y t <.x.d.f.f.d.k.j.R c m.k.s.l.!.b.j.z.z.Y p j.0.`.`.(.^.h.:.' m k.H._.n.l.!.(.n.h.I m m.h.h.l.l.",
"l.5.s.h.,.0 1.n.n.n.b.b.x.5.<./ r 6.=.b.b.f.d.j.j.L p v.k.s.l.!.z.z.z.l.T p -.-.w.z./.b.h.4.' a j.w.h.s.a.%.%.4.5.I M m.:.h.s.l.",
"s.5.s.d.1.p 5._.x.d.d.b.h._ / / b q.-.b.b.f.5.d.5.F g { j.s.j.f.~.l.b.5.L p =.[ ^ @.h.q.0.0.! i 6.0.:.:.>.%.%.4.s.K m n.h.4.s.h.",
",.'  .T F x T <.3.1.1. .( W E g s X.q.x.5.R R R R P C Q ] I I I I I I D Z M J F E Y U R T ' F V / Y Y T T T T T T b m =.=.R R =.",
"7 : - = = x 5 * * < 7 V Q W C y > u Z K K M b h d Z Q ) A P Y A V B B z z x z k 8 5 q b b v b V V p 7 c b x x n 8 8 9 9 q 9 l 9 ",
"x l 3.u.x.v.v.P.I.L.P.D.Q ~ y.Z.L.Y.Y.%X@X|.%XX.7.'.].XX+X%XOXF.B.V A O.0.<.5.<. .( ( D V B Q ] X.,.,.T  .R N K 5.u.u.5.R U K M ",
"5.3.4X1X1X<X2X2X6X,X,XJ.j } $X3X=X#X#X=X6X1X>XI _.,X+X}.H.n.S.C.B.C +.R.E.*X<X,X,XE.OXq.v | #X$X3X3X=X&X<X'.M x.>X%X%X.X&X<X=X:X",
"K 5.}.H._./.{.{.'._.G.X.j +.U.H.H.c.6.( n.x.u.c k.8.k.n.h.k.k.B.) y 8.8.6.S.).G.n.q.0.5.d +.*XXX:X+X{._._.n.M m.n.q.k.j.n._.'.(.",
"L 5.n.-.5.c.x.b.n.j.<.1.d X.J.k.k.0.6.c.0.] ,.b q.7.q.z.h.4.<.o.! y [ O.8.).`.`.n.j.h.5.p 7.oXG.{.{._._.G.k.M d.j.k.m.'./.n.b.b.",
"b =.k.<.h.b.^.^.m.5.=.,.v =.n.k.0.8.8.e.q.1.5.D e.4.0.0.<.-.-.X.~ i [ { 0.n.).^.l.j.j.,.p 5./.l.^.(.^.z.q.2.b 5.z.J.{.{.'.{.'.m.",
"a Q j.4.0.x.k.x.c.d.5.<.b T c.q.6.O.O.1.1.j.5.K s.q.5.5.5.5.5.1.E i ) 8.0.j.f.b.l.5.5.,.c 5.k.l.)._.^.j.0.2.b ,.j.b.m.m.H.D.m.u.",
"V C ,. . . . . . . .,. .M K <. .| ....,.T R T M P ' T T ,.' U I h i V =.5.5.2.,.,. .R K b T 2.=.,.<.<.3.5.,.b I ,.,.1.X...| | ! ",
"t 5 x 7 - i p ; > 7 l x 4 x l p b D N D L K U M b 0 0 0 ; q M N N D K K H K K x 5 q 0 q p b M M M c p x x q 7 2 3 p s i > > w r ",
"A.F.].P.v.D 5 u.[.Y.m.v.D.L.p.D.L K ].%X,X,X&X>X%X}.D N }.&X=X=X<X,X&X,X%X3.c L  . .,.U ,.d.,.M M 5.u.k.v.x.5.3.T K s C @.y.y.N.",
"OXoXoX}.}.' x <X%XoX@X%X%X@XE.OX<.u.8X%X+X,X:X[.U.[.R  .8X%X,X,X>X+X}.|.:X,.L :X4X5X5X6X5X6X6Xu.$.<X3X<X2X8X2X1X1X].t +.3XOXW.OX",
"J.n.H.H.c.P b H.Y #.*.*.*.:.6.0.P 5.{.j.^.^.n.j.6.7.L ,.[.'.+X}.m.b.n.n.x.c R }.G.].].XX].].P.I <.'.k._.).~.k.j.c.j.p 1.J.c.S.H.",
"6.:.0.q.q.Z x x.' -.<.s.s.s.0.k.I x._.k.n.`.{.}.c.q.b  .].'.P.e.j.(.`._.x.b R m.^._._.).).z.j.D <.J.w._.`.^.s.0.k.<.c <.8.{ ] -.",
"q.0.<.=.5.D t <.6.<.h.s.:.s.0.q.I u.n.h.k.H.G.c.k.<.b 1.m.0.h.j.l.!.b.n.d.c T m.j.z.z.z.z.z.j.D <.D.:.l.b.f.s.2.4.,.c ] 8.o.[ 8.",
"7.7.4.6.5.D > / j.-.A ` d.h.0.5.T ,.k.4.4.<.4.q.4.,.D ,.k.q.0.4.l.j.l.j.5.b ,.n.l.z.z.l.z.z.d.D ,.G.4.h.d.a.s.*.<.3.c ' c.7.8.+.",
"'  .X.} o.b 0 V F ( ( ( ,.3.,.,.D I <.-.' I T I I I N I 1.' T  .&.&.&.L D q P 4.s.j.j.d.5.5.5.G K 0.<.4.,.3.2.,.3.T 9 m ] ' ( ( ",
"5 : : e - $ $ + O ; p s p b p 5 x M x q c c 3 7 ; q b b c c c a b P T ,.,.,.1.u. .b b c M J A M m m m M m N M l q 8 z x M m u - ",
"2 b 1.1.r.t.t.5.X.! v m 5.b.x.x.m.m.n.5.b b ..].[..X.X[..X%Xc.d V Y.=X=X*X*X*X&X,X' m P.'.'.A.U.[.}..X|.Y G }..X.X.X%X%XoX%XoXP.",
"- '.8X2X2X*X=X2X*X[.A Z =X4X6X6X2X8X7X>XK U <X<X.X'.x.x.x.x.7.Q D '.H.k.-.-.q.4.4.Z T :X}.}.`.XX}.}.H.H.J U :Xn.'._.{.`.G.G.J.c.",
"p p.oX'.x.q.n.n.b.q.b P U.'.H._./.{.{./.T T +Xn.c.5.=.;.;.=.<.F F H.k.0.*.<.k.h.4.b Y {.}.|._.).).z.<.-.c T '.:.j.s.l.!.n.z.j.4.",
"x u.J.,.` -.4.h.d.=.s P }.H.4.s.d.j.l.j.L L m.<.=.4.4.4.5.:.<.D Y J.k.0.<.s.j.h.4.b K _.).`.l.h.l.h.;.<.m =.}.4.d.f.b.b.l.s.4.4.",
"m q.D.4.1.4.h.b.l.k.t K ;Xm.4.d.d.d.k.h.L D q.' =.<.4.<.<.=.4.K P n.j.<.-.5.h.4.5.b K k.*.:.d.s.s.2.;.4.M =.G.=.;.;.s.a.4.:.<.<.",
"m :.j.4.1.4.i.S.b.k.J M /.k.:.4.4.s.d.j.I 5 ' 1.5.1.4.q.1.,.,.M M 6.<.-.=.5.s.d.5.D v -.' *.;.5.s.2.;.,.M Y h.:.-.;.2.2.;.5.4.,.",
"M P Y P D Z D P P K b v -.<.,.3.,.3.3.5.I 5 Z P K L D M b c p 5 q m b x b c D D b p % & 5 x c M M M b M M K Y K M N K N M N m M ",
"R U N l 7 7 c c 5 = , < 6 l x M m b c q 7 = $ = < $ & 3 5 = 7 x m M Z v 5 : 9 5 V T  . .' I D M z u v v z z 9 1 1 6 9 l l q H &.",
"<X<X&X%X.X[.M b u.v.v.L.P.[..X%Xm.x b x.L.Y.Y.T. XY.1.; c '.oXoX&X*X%XoX+XH.5 T %X&X5X$X$X$X$X|.J 7.XXJ.U.F.U.U.[.%X|.L &.%X=X<X",
"'._.'.'.Y.v.M M |..X.X[.'._.v.m.H.M 1.8X&X[.[.%X&X*XP.= ,.,X}.[.].}.|.[.].G.5 ' +X].}.q.=.c.J.`.*.i.J.F.J.U.XXU.}.}.|.K x.1Xb.m.",
"s.3.2.2.Y &.N N n.l.x.s.2.$.#.Y 3.b u.:Xj.Y =.j.n.4.,.3 ..}.c.n.q.h.n.G.k.1.3 ' `.].H.<.:.).n.c.F <.V.V.w.V.w.:.k.l.<.m c.m.T 2.",
"5.x.d.5.$.=.K H m.n.n.b.f.5.&.*.3.b 5.|.j.x.x.x.<.<.<.r ' S.q.c.n.n.~.j.j.<.; I j.0.=.<.<.:.0.6.s X.8.S.w.j.e.k./.G.<.c x.x.5.d.",
"x.d.5.3.,.3.L K <.2.d.a.2.%.$.$.,.c j.m.q.b.x.k.5.X.X.i E 6.6.k._.`._.c.n.q.5 P 0.` 0.k.j.e.6.X.g ) { _ ] :.4.h.5.-.( b 5.5.3.q.",
"d.5.5.3.5.5.N N ,.=.,.%.%.2.2.,.5.b ,.c.d.d.2.d.5.6.O.f j [ -.e.n._.^.n.n.4.0 P 0.<.k.m.n.S.7.+.V A [ _ [ 6.4.-.=.-.I b ' 4.3.5.",
"K L L L L U c N T U U &.&.&.&.,.,.c D ,.,.,.3.,.( ~ W f y j C D P Y ' *.Y a p p D Y P R ' ' X.( B y g B C F D D M b M M K P K K ",
"b M l 3 3 7 9 l k 6 7 9 p b N 5 3 7 7 : 3 & & 3 d d j E W E F F D 9 3 :   * 2 7 2 % % + + 4 t 4 > - - > t 8 8 8 4 2 2 x x 9 x M ",
"U H N x.P.I.Y.Y.[. XY.[.P.K x u.P.U.[.Y.Y.Y.[.}.D ( E.K.W.$X=X2X<Xv.9 7 v.@X@X@X.X[.Y.P.i.c t ) { ] ( ( <.4.-.M 4 J ,.q.d.5.,.T ",
">Xd.U 1X<X:X&X&X&X&X&X[.m.R b .X<X<X<X+X[.'.D.m.I u.<XoX[.{.'._.'.n.v K <X%X%X*X@X@X@XY.}. .x oXOXOX#X*X<X*X,X' P ;X%X%X,X%XoX&X",
"x.&.T >X[.j.5.5.&.;.=.3.3.L N |._.].{.G.n.-.` <.D q.{.n.b.k.^.^.}.m.M T '.#.d.d.d.;.*.` ' V A oX_._.n.G.z.z.k.J T J.h.)._._.c.x.",
",.R L :X'.d.b./.b.5.=.,.5.D D [.0.S.C.D.j.4.4.q.D ,.k.' 2.<.(.-X}.n.M I k.' -.n.~.j.d.4.<.s D '.G.G.^.l.:.z.n.K J k.j.c.c.j.-.-.",
"5.T K :X'.n.b.b.d.2.<.5.5.U D L.[ [ 8.6.{ 0.4.5.N R k.=.j./.}.-X`.k.b P 4.=.;.l.l.s.4.*. .0 P c.:.)./.!.;.<.4.K M 4.:.-.<._ _ =.",
"5.I K ].n.5.5.2.2.5.q.5.5.L V y.o._ _ O.6.1.<.1.N I j.4.<.<.l.k.4.5.K b -.' ,.-.5.l.4.d.' > A 0.-.^.^.!.s.;.4.L Z :.<.<.o.| o.O.",
"R K m P F F K I I U I T I S S ) ! ! ~ Q F D b x p p K K K Z D N b b x 0 v b M Z K F K K b 5 f ( ' <.5.2.,.,.<.K J ' ' ! ( | Q I ",
"P K U P F K c c x x c u 9 v V V C g g g g V J J m M c 9 5 $ 1 x u c m c m 9 5 t t w % X . X o # : 5 = * 2 8 6 k 8 , - r g d s Z ",
"@X$X<X<X%X:X<.3 I n.v.P.P.H.U.F.A.9.S A.F.oX*X=X:X:X|.T 7 x.].*X&X&X&X%X%X+Xq.* =.J.L.I.L.p.v.t.D : 5.n.c.v.m.D.v.k.<.V j Z.I.@X",
"oXoX|.'._.`.<.2 '.1X6X6X6X6X3XW.K.C.Q U.F.oX*X%X[.c.x.I : ].[.I.J.D.H.P.m.c. .$ _.+X}.XX+X:X%X<X7.q <X:X*X*X%X*X*X*X#X+.C #XoX+X",
"S.n.n.s.d.k.3.7 {.|.'.n.c.H.J.S.S.X.D H.k.S._.n.s.*.2.U 5 c.-.-.<.s.j.b.h.4.L : H.n.k.z._._.k.4.P N _.h.h.2.*.:.h.c.j./ Q ].G.S.",
"z.z.l.s.4.s.3.5 P.{.k.<.6.k.j.j.j.' K '.e.j.h.l.s.2.a.L 7 q.-.4.b.n.n.n.0.6.K : m.n.k.n._.^.b.4.I M j.4.d.s.f.f.b.n.n.K ' ].j.w.",
"h.4.:.s.h.5.,.u c.c.4.e.c.b.k.0.0.R M m.4.h.s.d.s.;.5.K p <.' k.c.n.x.x.e.1.L 7 v.0.4.j.b._.z.<.I c k.4.f.s.f.f.5.o.<.M ' |.k.k.",
"h.s.0.q.5.d.,.p ' k.<.x.b.x.j.5.5.,.m j.j.h.d.d.d.5.d.K p 5.<.x.n.x.u.j.x.5.D p k.4.-.<.n.G.0.<.I p 4.:.4.f.!.g.8.^ 6.N J n.h.h.",
"K U I U U ' K b J I (  .T T R &. .K K :.5.=.U K N N N p 9 Z P U L I U L L D a q ' 4.' ] <.-.' ' D x T Y T &.&.,.( ~ T M x K K P "
};
